League Spartan-Black.ufo
<glyph name="exclam" format="2">
	<advance width="598"/>
	<unicode hex="0021"/>
	<outline>
		<contour>
			<point x="77" y="1376" type="line"/>
			<point x="155" y="475" type="line"/>
			<point x="419" y="475" type="line"/>
			<point x="496" y="1376" type="line"/>
		</contour>
		<contour>
			<point x="286" y="-24" type="curve"/>
			<point x="286" y="-24" type="line"/>
			<point x="406" y="-24"/>
			<point x="502" y="72"/>
			<point x="502" y="190" type="curve"/>
			<point x="502" y="309"/>
			<point x="406" y="406"/>
			<point x="286" y="406" type="curve"/>
			<point x="168" y="406"/>
			<point x="72" y="309"/>
			<point x="72" y="190" type="curve"/>
			<point x="72" y="72"/>
			<point x="170" y="-24"/>
		</contour>
	</outline>
</glyph>
<glyph name="numbersign" format="2">
	<advance width="1373"/>
	<unicode hex="0023"/>
	<outline>
		<contour>
			<point x="744" y="1320" type="line"/>
			<point x="485" y="1320" type="line"/>
			<point x="136" y="0" type="line"/>
			<point x="395" y="0" type="line"/>
		</contour>
		<contour>
			<point x="1192" y="1320" type="line"/>
			<point x="933" y="1320" type="line"/>
			<point x="584" y="0" type="line"/>
			<point x="843" y="0" type="line"/>
		</contour>
		<contour>
			<point x="1250" y="997" type="line"/>
			<point x="258" y="997" type="line"/>
			<point x="184" y="749" type="line"/>
			<point x="1176" y="749" type="line"/>
		</contour>
		<contour>
			<point x="1146" y="573" type="line"/>
			<point x="154" y="573" type="line"/>
			<point x="80" y="325" type="line"/>
			<point x="1072" y="325" type="line"/>
		</contour>
	</outline>
</glyph>
<glyph name="percent" format="2">
	<advance width="1680"/>
	<unicode hex="0025"/>
	<outline>
		<contour>
			<point x="1390" y="1320" type="line"/>
			<point x="1142" y="1320" type="line"/>
			<point x="294" y="0" type="line"/>
			<point x="542" y="0" type="line"/>
		</contour>
		<contour>
			<point x="32" y="1029" type="curve"/>
			<point x="32" y="1029" type="line"/>
			<point x="32" y="843"/>
			<point x="187" y="680"/>
			<point x="424" y="680" type="curve"/>
			<point x="661" y="680"/>
			<point x="816" y="843"/>
			<point x="816" y="1029" type="curve"/>
			<point x="816" y="1218"/>
			<point x="661" y="1378"/>
			<point x="424" y="1378" type="curve"/>
			<point x="187" y="1378"/>
			<point x="32" y="1218"/>
		</contour>
		<contour>
			<point x="294" y="1029" type="curve"/>
			<point x="294" y="1029" type="line"/>
			<point x="294" y="1107"/>
			<point x="347" y="1168"/>
			<point x="424" y="1168" type="curve"/>
			<point x="501" y="1168"/>
			<point x="550" y="1107"/>
			<point x="550" y="1029" type="curve"/>
			<point x="550" y="950"/>
			<point x="501" y="893"/>
			<point x="424" y="893" type="curve"/>
			<point x="347" y="893"/>
			<point x="294" y="950"/>
		</contour>
		<contour>
			<point x="864" y="291" type="curve"/>
			<point x="864" y="291" type="line"/>
			<point x="864" y="106"/>
			<point x="1019" y="-58"/>
			<point x="1256" y="-58" type="curve"/>
			<point x="1493" y="-58"/>
			<point x="1648" y="106"/>
			<point x="1648" y="291" type="curve"/>
			<point x="1648" y="480"/>
			<point x="1493" y="640"/>
			<point x="1256" y="640" type="curve"/>
			<point x="1019" y="640"/>
			<point x="864" y="480"/>
		</contour>
		<contour>
			<point x="1126" y="291" type="curve"/>
			<point x="1126" y="291" type="line"/>
			<point x="1126" y="370"/>
			<point x="1179" y="430"/>
			<point x="1256" y="430" type="curve"/>
			<point x="1333" y="430"/>
			<point x="1382" y="370"/>
			<point x="1382" y="291" type="curve"/>
			<point x="1382" y="213"/>
			<point x="1333" y="155"/>
			<point x="1256" y="155" type="curve"/>
			<point x="1179" y="155"/>
			<point x="1126" y="213"/>
		</contour>
	</outline>
</glyph>
<glyph name="quotesingle" format="2">
	<advance width="506"/>
	<unicode hex="0027"/>
	<outline>
		<contour>
			<point x="240" y="1366" type="curve"/>
			<point x="240" y="1366" type="line"/>
			<point x="158" y="1366"/>
			<point x="78" y="1307"/>
			<point x="78" y="1182" type="curve"/>
			<point x="78" y="1019"/>
			<point x="133" y="838"/>
			<point x="176" y="704" type="curve"/>
			<point x="270" y="704" type="line"/>
			<point x="328" y="838"/>
			<point x="403" y="1016"/>
			<point x="403" y="1182" type="curve"/>
			<point x="403" y="1307"/>
			<point x="323" y="1366"/>
		</contour>
	</outline>
</glyph>
<glyph name="hyphen" format="2">
	<advance width="747"/>
	<unicode hex="002D"/>
	<outline>
		<contour>
			<point x="104" y="621" type="line"/>
			<point x="104" y="288" type="line"/>
			<point x="619" y="288" type="line"/>
			<point x="619" y="621" type="line"/>
		</contour>
	</outline>
</glyph>
<glyph name="period" format="2">
	<advance width="598"/>
	<unicode hex="002E"/>
	<outline>
		<contour>
			<point x="286" y="-24" type="curve"/>
			<point x="286" y="-24" type="line"/>
			<point x="405" y="-24"/>
			<point x="501" y="72"/>
			<point x="501" y="190" type="curve"/>
			<point x="501" y="309"/>
			<point x="405" y="405"/>
			<point x="286" y="405" type="curve"/>
			<point x="168" y="405"/>
			<point x="72" y="309"/>
			<point x="72" y="190" type="curve"/>
			<point x="72" y="72"/>
			<point x="168" y="-24"/>
		</contour>
	</outline>
</glyph>
<glyph name="slash" format="2">
	<advance width="1018"/>
	<unicode hex="002F"/>
	<outline>
		<contour>
			<point x="978" y="1376" type="line"/>
			<point x="675" y="1376" type="line"/>
			<point x="16" y="-192" type="line"/>
			<point x="318" y="-192" type="line"/>
		</contour>
	</outline>
</glyph>
<glyph name="zero" format="2">
	<advance width="1203"/>
	<unicode hex="0030"/>
	<outline>
		<contour>
			<point x="27" y="659" type="curve"/>
			<point x="27" y="659" type="line"/>
			<point x="27" y="163"/>
			<point x="286" y="-24"/>
			<point x="590" y="-24" type="curve"/>
			<point x="896" y="-24"/>
			<point x="1152" y="163"/>
			<point x="1152" y="659" type="curve"/>
			<point x="1152" y="1109"/>
			<point x="896" y="1344"/>
			<point x="590" y="1344" type="curve"/>
			<point x="286" y="1344"/>
			<point x="27" y="1109"/>
		</contour>
		<contour>
			<point x="414" y="659" type="curve"/>
			<point x="414" y="659" type="line"/>
			<point x="414" y="870"/>
			<point x="467" y="1006"/>
			<point x="590" y="1006" type="curve"/>
			<point x="714" y="1006"/>
			<point x="765" y="870"/>
			<point x="765" y="659" type="curve"/>
			<point x="765" y="422"/>
			<point x="714" y="314"/>
			<point x="590" y="314" type="curve"/>
			<point x="467" y="314"/>
			<point x="414" y="421"/>
		</contour>
	</outline>
</glyph>
<glyph name="two" format="2">
	<advance width="1174"/>
	<unicode hex="0032"/>
	<outline>
		<contour>
			<point x="574" y="1019" type="curve"/>
			<point x="574" y="1019" type="line"/>
			<point x="658" y="1019"/>
			<point x="706" y="986"/>
			<point x="706" y="904" type="curve"/>
			<point x="706" y="691"/>
			<point x="91" y="312"/>
			<point x="77" y="304" type="curve"/>
			<point x="77" y="0" type="line"/>
			<point x="1083" y="0" type="line"/>
			<point x="1083" y="334" type="line"/>
			<point x="654" y="334" type="line"/>
			<point x="666" y="336"/>
			<point x="1094" y="550"/>
			<point x="1094" y="898" type="curve"/>
			<point x="1094" y="1051"/>
			<point x="1005" y="1344"/>
			<point x="574" y="1344" type="curve"/>
			<point x="133" y="1344"/>
			<point x="21" y="1006"/>
			<point x="13" y="957" type="curve"/>
			<point x="341" y="805" type="line"/>
			<point x="346" y="822"/>
			<point x="427" y="1019"/>
		</contour>
	</outline>
</glyph>
<glyph name="six" format="2">
	<advance width="1142"/>
	<unicode hex="0036"/>
	<outline>
		<contour>
			<point x="653" y="893" type="curve"/>
			<point x="653" y="893" type="line"/>
			<point x="613" y="893"/>
			<point x="598" y="886"/>
			<point x="590" y="880" type="curve"/>
			<point x="978" y="1320" type="line"/>
			<point x="528" y="1320" type="line"/>
			<point x="221" y="950" type="line" smooth="yes"/>
			<point x="131" y="843"/>
			<point x="43" y="693"/>
			<point x="43" y="459" type="curve"/>
			<point x="43" y="149"/>
			<point x="275" y="-24"/>
			<point x="558" y="-24" type="curve"/>
			<point x="840" y="-24"/>
			<point x="1067" y="173"/>
			<point x="1067" y="451" type="curve"/>
			<point x="1067" y="733"/>
			<point x="848" y="893"/>
		</contour>
		<contour>
			<point x="555" y="288" type="curve"/>
			<point x="555" y="288" type="line"/>
			<point x="472" y="288"/>
			<point x="405" y="355"/>
			<point x="405" y="438" type="curve"/>
			<point x="405" y="520"/>
			<point x="472" y="587"/>
			<point x="555" y="587" type="curve"/>
			<point x="637" y="587"/>
			<point x="704" y="520"/>
			<point x="704" y="438" type="curve"/>
			<point x="704" y="355"/>
			<point x="637" y="288"/>
		</contour>
	</outline>
</glyph>
<glyph name="eight" format="2">
	<advance width="1139"/>
	<unicode hex="0038"/>
	<outline>
		<contour>
			<point x="560" y="-24" type="curve"/>
			<point x="560" y="-24" type="line"/>
			<point x="826" y="-24"/>
			<point x="1074" y="134"/>
			<point x="1074" y="371" type="curve"/>
			<point x="1074" y="547"/>
			<point x="979" y="645"/>
			<point x="850" y="712" type="curve"/>
			<point x="947" y="776"/>
			<point x="1011" y="846"/>
			<point x="1011" y="992" type="curve"/>
			<point x="1011" y="1211"/>
			<point x="814" y="1344"/>
			<point x="558" y="1344" type="curve"/>
			<point x="309" y="1344"/>
			<point x="99" y="1211"/>
			<point x="99" y="992" type="curve"/>
			<point x="99" y="846"/>
			<point x="166" y="776"/>
			<point x="267" y="712" type="curve"/>
			<point x="136" y="645"/>
			<point x="43" y="547"/>
			<point x="43" y="371" type="curve"/>
			<point x="43" y="134"/>
			<point x="294" y="-24"/>
		</contour>
		<contour>
			<point x="558" y="310" type="curve"/>
			<point x="558" y="310" type="line"/>
			<point x="496" y="310"/>
			<point x="445" y="362"/>
			<point x="445" y="424" type="curve"/>
			<point x="445" y="486"/>
			<point x="496" y="538"/>
			<point x="558" y="538" type="curve"/>
			<point x="621" y="538"/>
			<point x="672" y="486"/>
			<point x="672" y="424" type="curve"/>
			<point x="672" y="362"/>
			<point x="621" y="310"/>
		</contour>
		<contour>
			<point x="560" y="830" type="curve"/>
			<point x="560" y="830" type="line"/>
			<point x="499" y="830"/>
			<point x="450" y="880"/>
			<point x="450" y="941" type="curve"/>
			<point x="450" y="1000"/>
			<point x="499" y="1050"/>
			<point x="560" y="1050" type="curve"/>
			<point x="619" y="1050"/>
			<point x="669" y="1000"/>
			<point x="669" y="941" type="curve"/>
			<point x="669" y="880"/>
			<point x="619" y="830"/>
		</contour>
	</outline>
</glyph>
<glyph name="question" format="2">
	<advance width="994"/>
	<unicode hex="003F"/>
	<outline>
		<contour>
			<point x="285" y="622" type="curve"/>
			<point x="285" y="475" type="line"/>
			<point x="621" y="475" type="line"/>
			<point x="621" y="522" type="line" smooth="yes"/>
			<point x="621" y="603"/>
			<point x="645" y="658"/>
			<point x="717" y="698" type="curve"/>
			<point x="787" y="738"/>
			<point x="947" y="835"/>
			<point x="947" y="1013" type="curve"/>
			<point x="947" y="1221"/>
			<point x="746" y="1344"/>
			<point x="490" y="1344" type="curve"/>
			<point x="114" y="1344"/>
			<point x="-5" y="1061"/>
			<point x="-10" y="1021" type="curve"/>
			<point x="309" y="896" type="line"/>
			<point x="328" y="949"/>
			<point x="362" y="1022"/>
			<point x="438" y="1022" type="curve"/>
			<point x="499" y="1022"/>
			<point x="526" y="1002"/>
			<point x="526" y="950" type="curve"/>
			<point x="526" y="893"/>
			<point x="472" y="853"/>
			<point x="410" y="821" type="curve"/>
			<point x="334" y="782"/>
			<point x="285" y="715"/>
		</contour>
		<contour>
			<point x="459" y="-24" type="curve"/>
			<point x="459" y="-24" type="line"/>
			<point x="579" y="-24"/>
			<point x="677" y="72"/>
			<point x="677" y="190" type="curve"/>
			<point x="677" y="310"/>
			<point x="579" y="406"/>
			<point x="459" y="406" type="curve"/>
			<point x="342" y="406"/>
			<point x="245" y="310"/>
			<point x="245" y="190" type="curve"/>
			<point x="245" y="72"/>
			<point x="342" y="-24"/>
		</contour>
	</outline>
</glyph>
<glyph name="B" format="2">
	<advance width="1154"/>
	<unicode hex="0042"/>
	<anchor x="541" y="1320" name="top"/>
	<anchor x="541" y="0" name="bottom"/>
	<outline>
		<contour>
			<point x="590" y="1320" type="curve"/>
			<point x="78" y="1320" type="line"/>
			<point x="78" y="0" type="line"/>
			<point x="629" y="0" type="line" smooth="yes"/>
			<point x="902" y="0"/>
			<point x="1070" y="152"/>
			<point x="1070" y="378" type="curve"/>
			<point x="1070" y="589"/>
			<point x="960" y="688"/>
			<point x="806" y="710" type="curve"/>
			<point x="931" y="742"/>
			<point x="1021" y="843"/>
			<point x="1021" y="994" type="curve"/>
			<point x="1021" y="1229"/>
			<point x="822" y="1320"/>
		</contour>
		<contour>
			<point x="520" y="306" type="curve"/>
			<point x="466" y="306" type="line"/>
			<point x="466" y="525" type="line"/>
			<point x="520" y="525" type="line" smooth="yes"/>
			<point x="606" y="525"/>
			<point x="661" y="506"/>
			<point x="661" y="418" type="curve"/>
			<point x="661" y="330"/>
			<point x="606" y="306"/>
		</contour>
		<contour>
			<point x="518" y="824" type="curve"/>
			<point x="466" y="824" type="line"/>
			<point x="466" y="1014" type="line"/>
			<point x="518" y="1014" type="line" smooth="yes"/>
			<point x="592" y="1014"/>
			<point x="637" y="1000"/>
			<point x="637" y="923" type="curve"/>
			<point x="637" y="846"/>
			<point x="592" y="824"/>
		</contour>
	</outline>
</glyph>
<glyph name="C" format="2">
	<advance width="1206"/>
	<unicode hex="0043"/>
	<anchor x="698" y="1320" name="top"/>
	<anchor x="698" y="0" name="bottom"/>
	<outline>
		<contour>
			<point x="1090" y="907" type="curve"/>
			<point x="1090" y="907" type="line"/>
			<point x="1090" y="1296" type="line"/>
			<point x="1018" y="1333"/>
			<point x="909" y="1344"/>
			<point x="789" y="1344" type="curve"/>
			<point x="333" y="1344"/>
			<point x="38" y="1046"/>
			<point x="38" y="661" type="curve"/>
			<point x="38" y="275"/>
			<point x="304" y="-24"/>
			<point x="789" y="-24" type="curve"/>
			<point x="898" y="-24"/>
			<point x="1027" y="-8"/>
			<point x="1090" y="18" type="curve"/>
			<point x="1090" y="406" type="line"/>
			<point x="1054" y="379"/>
			<point x="973" y="333"/>
			<point x="789" y="333" type="curve"/>
			<point x="570" y="333"/>
			<point x="442" y="470"/>
			<point x="442" y="661" type="curve"/>
			<point x="442" y="851"/>
			<point x="570" y="989"/>
			<point x="789" y="989" type="curve"/>
			<point x="973" y="989"/>
			<point x="1054" y="938"/>
		</contour>
	</outline>
</glyph>
<glyph name="D" format="2">
	<advance width="1243"/>
	<unicode hex="0044"/>
	<anchor x="370" y="661" name="center"/>
	<anchor x="584" y="0" name="bottom"/>
	<anchor x="584" y="1320" name="top"/>
	<outline>
		<contour>
			<point x="528" y="1320" type="curve"/>
			<point x="72" y="1320" type="line"/>
			<point x="72" y="0" type="line"/>
			<point x="528" y="0" type="line" smooth="yes"/>
			<point x="949" y="0"/>
			<point x="1162" y="275"/>
			<point x="1162" y="661" type="curve"/>
			<point x="1162" y="1045"/>
			<point x="949" y="1320"/>
		</contour>
		<contour>
			<point x="459" y="341" type="line"/>
			<point x="459" y="979" type="line"/>
			<point x="493" y="979" type="line" smooth="yes"/>
			<point x="659" y="979"/>
			<point x="750" y="838"/>
			<point x="750" y="659" type="curve"/>
			<point x="750" y="480"/>
			<point x="658" y="341"/>
			<point x="493" y="341" type="curve"/>
		</contour>
	</outline>
</glyph>
<glyph name="G" format="2">
	<advance width="1512"/>
	<unicode hex="0047"/>
	<anchor x="733" y="1320" name="top"/>
	<anchor x="765" y="0" name="bottom"/>
	<outline>
		<contour>
			<point x="1424" y="752" type="line"/>
			<point x="717" y="752" type="line"/>
			<point x="717" y="462" type="line"/>
			<point x="965" y="462" type="line"/>
			<point x="914" y="387"/>
			<point x="832" y="338"/>
			<point x="731" y="338" type="curve"/>
			<point x="557" y="338"/>
			<point x="442" y="483"/>
			<point x="442" y="661" type="curve"/>
			<point x="442" y="838"/>
			<point x="557" y="984"/>
			<point x="731" y="984" type="curve"/>
			<point x="830" y="984"/>
			<point x="912" y="936"/>
			<point x="962" y="862" type="curve"/>
			<point x="1272" y="1096" type="line"/>
			<point x="1147" y="1248"/>
			<point x="954" y="1344"/>
			<point x="731" y="1344" type="curve"/>
			<point x="338" y="1344"/>
			<point x="38" y="1046"/>
			<point x="38" y="661" type="curve"/>
			<point x="38" y="275"/>
			<point x="310" y="-24"/>
			<point x="731" y="-24" type="curve"/>
			<point x="1142" y="-24"/>
			<point x="1424" y="275"/>
			<point x="1424" y="661" type="curve"/>
		</contour>
	</outline>
</glyph>
<glyph name="H" format="2">
	<advance width="1302"/>
	<unicode hex="0048"/>
	<anchor x="618" y="958" name="center"/>
	<anchor x="618" y="1320" name="top"/>
	<anchor x="0" y="1320" name="topleft"/>
	<anchor x="618" y="-298" name="bottom"/>
	<outline>
		<contour>
			<point x="451" y="494" type="line"/>
			<point x="784" y="494" type="line"/>
			<point x="784" y="0" type="line"/>
			<point x="1170" y="0" type="line"/>
			<point x="1170" y="1320" type="line"/>
			<point x="784" y="1320" type="line"/>
			<point x="784" y="829" type="line"/>
			<point x="451" y="829" type="line"/>
			<point x="451" y="1320" type="line"/>
			<point x="64" y="1320" type="line"/>
			<point x="64" y="0" type="line"/>
			<point x="451" y="0" type="line"/>
		</contour>
	</outline>
</glyph>
<glyph name="J" format="2">
	<advance width="850"/>
	<unicode hex="004A"/>
	<anchor x="544" y="1320" name="top"/>
	<anchor x="416" y="0" name="bottom"/>
	<outline>
		<contour>
			<point x="730" y="410" type="curve"/>
			<point x="730" y="410" type="line"/>
			<point x="730" y="1320" type="line"/>
			<point x="342" y="1320" type="line"/>
			<point x="342" y="493" type="line" smooth="yes"/>
			<point x="342" y="360"/>
			<point x="266" y="350"/>
			<point x="219" y="350" type="curve"/>
			<point x="173" y="350"/>
			<point x="118" y="387"/>
			<point x="93" y="419" type="curve"/>
			<point x="-45" y="82" type="line"/>
			<point x="-26" y="58"/>
			<point x="101" y="-24"/>
			<point x="280" y="-24" type="curve"/>
			<point x="544" y="-24"/>
			<point x="730" y="134"/>
		</contour>
	</outline>
</glyph>
<glyph name="L" format="2">
	<advance width="1024"/>
	<unicode hex="004C"/>
	<anchor x="235" y="958" name="center"/>
	<anchor x="461" y="1320" name="top"/>
	<anchor x="906" y="1320" name="topright"/>
	<anchor x="498" y="0" name="bottom"/>
	<outline>
		<contour>
			<point x="466" y="1320" type="line"/>
			<point x="78" y="1320" type="line"/>
			<point x="78" y="0" type="line"/>
			<point x="917" y="0" type="line"/>
			<point x="917" y="336" type="line"/>
			<point x="466" y="336" type="line"/>
		</contour>
	</outline>
</glyph>
<glyph name="M" format="2">
	<advance width="1760"/>
	<unicode hex="004D"/>
	<anchor x="848" y="1320" name="top"/>
	<anchor x="848" y="0" name="bottom"/>
	<outline>
		<contour>
			<point x="1616" y="0" type="line"/>
			<point x="1616" y="1320" type="line"/>
			<point x="1062" y="1320" type="line"/>
			<point x="862" y="547" type="line"/>
			<point x="840" y="416" type="line"/>
			<point x="818" y="547" type="line"/>
			<point x="618" y="1320" type="line"/>
			<point x="64" y="1320" type="line"/>
			<point x="64" y="0" type="line"/>
			<point x="451" y="0" type="line"/>
			<point x="451" y="656" type="line"/>
			<point x="435" y="928" type="line"/>
			<point x="496" y="611" type="line"/>
			<point x="650" y="128" type="line"/>
			<point x="1029" y="128" type="line"/>
			<point x="1184" y="611" type="line"/>
			<point x="1245" y="928" type="line"/>
			<point x="1229" y="656" type="line"/>
			<point x="1229" y="0" type="line"/>
		</contour>
	</outline>
</glyph>
<glyph name="N" format="2">
	<advance width="1508"/>
	<unicode hex="004E"/>
	<anchor x="720" y="1320" name="top"/>
	<anchor x="720" y="0" name="bottom"/>
	<outline>
		<contour>
			<point x="451" y="963" type="line"/>
			<point x="422" y="968" type="line"/>
			<point x="850" y="0" type="line"/>
			<point x="1376" y="0" type="line"/>
			<point x="1376" y="1320" type="line"/>
			<point x="989" y="1320" type="line"/>
			<point x="989" y="354" type="line"/>
			<point x="1018" y="360" type="line"/>
			<point x="587" y="1320" type="line"/>
			<point x="64" y="1320" type="line"/>
			<point x="64" y="0" type="line"/>
			<point x="451" y="0" type="line"/>
		</contour>
	</outline>
</glyph>
<glyph name="Q" format="2">
	<advance width="1491"/>
	<unicode hex="0051"/>
	<outline>
		<contour>
			<point x="1075" y="-22" type="curve"/>
			<point x="1075" y="-22" type="line"/>
			<point x="954" y="-22"/>
			<point x="875" y="34"/>
			<point x="701" y="34" type="curve"/>
			<point x="506" y="34"/>
			<point x="342" y="-43"/>
			<point x="262" y="-147" type="curve"/>
			<point x="411" y="-325" type="line"/>
			<point x="414" y="-318"/>
			<point x="491" y="-254"/>
			<point x="616" y="-254" type="curve"/>
			<point x="834" y="-254"/>
			<point x="875" y="-374"/>
			<point x="1080" y="-374" type="curve"/>
			<point x="1246" y="-374"/>
			<point x="1368" y="-290"/>
			<point x="1413" y="-206" type="curve"/>
			<point x="1291" y="42" type="line"/>
			<point x="1283" y="29"/>
			<point x="1186" y="-22"/>
		</contour>
		<component base="O"/>
	</outline>
</glyph>
<glyph name="S" format="2">
	<advance width="1163"/>
	<unicode hex="0053"/>
	<anchor x="546" y="1320" name="top"/>
	<anchor x="546" y="0" name="bottom"/>
	<outline>
		<contour>
			<point x="594" y="1344" type="curve"/>
			<point x="594" y="1344" type="line"/>
			<point x="350" y="1344"/>
			<point x="118" y="1198"/>
			<point x="118" y="955" type="curve"/>
			<point x="118" y="714"/>
			<point x="282" y="605"/>
			<point x="450" y="544" type="curve"/>
			<point x="624" y="482"/>
			<point x="669" y="448"/>
			<point x="669" y="400" type="curve"/>
			<point x="669" y="355"/>
			<point x="630" y="330"/>
			<point x="546" y="330" type="curve"/>
			<point x="421" y="330"/>
			<point x="230" y="430"/>
			<point x="202" y="454" type="curve"/>
			<point x="13" y="131" type="line"/>
			<point x="45" y="99"/>
			<point x="251" y="-24"/>
			<point x="546" y="-24" type="curve"/>
			<point x="802" y="-24"/>
			<point x="1072" y="88"/>
			<point x="1072" y="382" type="curve"/>
			<point x="1072" y="603"/>
			<point x="926" y="731"/>
			<point x="722" y="798" type="curve"/>
			<point x="563" y="851"/>
			<point x="514" y="883"/>
			<point x="514" y="931" type="curve"/>
			<point x="514" y="978"/>
			<point x="566" y="995"/>
			<point x="637" y="995" type="curve"/>
			<point x="726" y="995"/>
			<point x="843" y="930"/>
			<point x="875" y="906" type="curve"/>
			<point x="1058" y="1216" type="line"/>
			<point x="1029" y="1238"/>
			<point x="850" y="1344"/>
		</contour>
	</outline>
</glyph>
<glyph name="T" format="2">
	<advance width="1042"/>
	<unicode hex="0054"/>
	<anchor x="485" y="661" name="center"/>
	<anchor x="485" y="0" name="bottom"/>
	<anchor x="485" y="1320" name="top"/>
	<outline>
		<contour>
			<point x="6" y="984" type="line"/>
			<point x="291" y="984" type="line"/>
			<point x="291" y="0" type="line"/>
			<point x="678" y="0" type="line"/>
			<point x="678" y="984" type="line"/>
			<point x="963" y="984" type="line"/>
			<point x="963" y="1320" type="line"/>
			<point x="6" y="1320" type="line"/>
		</contour>
	</outline>
</glyph>
<glyph name="U" format="2">
	<advance width="1294"/>
	<unicode hex="0055"/>
	<anchor x="1120" y="16" name="ogonek"/>
	<anchor x="621" y="1320" name="top"/>
	<anchor x="1171" y="1320" name="topright"/>
	<anchor x="621" y="0" name="bottom"/>
	<outline>
		<contour>
			<point x="1171" y="1320" type="line"/>
			<point x="784" y="1320" type="line"/>
			<point x="784" y="536" type="line" smooth="yes"/>
			<point x="784" y="389"/>
			<point x="731" y="326"/>
			<point x="621" y="326" type="curve"/>
			<point x="509" y="326"/>
			<point x="456" y="389"/>
			<point x="456" y="536" type="curve"/>
			<point x="456" y="1320" type="line"/>
			<point x="69" y="1320" type="line"/>
			<point x="69" y="515" type="line" smooth="yes"/>
			<point x="69" y="189"/>
			<point x="262" y="-24"/>
			<point x="621" y="-24" type="curve"/>
			<point x="979" y="-24"/>
			<point x="1171" y="189"/>
			<point x="1171" y="515" type="curve"/>
		</contour>
	</outline>
</glyph>
<glyph name="V" format="2">
	<advance width="1418"/>
	<unicode hex="0056"/>
	<anchor x="677" y="1320" name="top"/>
	<anchor x="677" y="0" name="bottom"/>
	<outline>
		<contour>
			<point x="461" y="0" type="line"/>
			<point x="893" y="0" type="line"/>
			<point x="1354" y="1320" type="line"/>
			<point x="917" y="1320" type="line"/>
			<point x="677" y="501" type="line"/>
			<point x="437" y="1320" type="line"/>
			<point x="0" y="1320" type="line"/>
		</contour>
	</outline>
</glyph>
<glyph name="X" format="2">
	<advance width="1531"/>
	<unicode hex="0058"/>
	<anchor x="726" y="1320" name="top"/>
	<anchor x="726" y="0" name="bottom"/>
	<outline>
		<contour>
			<point x="1475" y="0" type="line"/>
			<point x="970" y="710" type="line"/>
			<point x="1386" y="1320" type="line"/>
			<point x="915" y="1320" type="line"/>
			<point x="730" y="1008" type="line"/>
			<point x="544" y="1320" type="line"/>
			<point x="50" y="1320" type="line"/>
			<point x="475" y="710" type="line"/>
			<point x="8" y="0" type="line"/>
			<point x="475" y="0" type="line"/>
			<point x="714" y="386" type="line"/>
			<point x="968" y="0" type="line"/>
		</contour>
	</outline>
</glyph>
<glyph name="Y" format="2">
	<advance width="1266"/>
	<unicode hex="0059"/>
	<anchor x="598" y="1320" name="top"/>
	<anchor x="598" y="0" name="bottom"/>
	<anchor x="-10" y="1320" name="topleft"/>
	<outline>
		<contour>
			<point x="-58" y="1320" type="line"/>
			<point x="405" y="475" type="line"/>
			<point x="405" y="0" type="line"/>
			<point x="792" y="0" type="line"/>
			<point x="792" y="475" type="line"/>
			<point x="1253" y="1320" type="line"/>
			<point x="784" y="1320" type="line"/>
			<point x="598" y="915" type="line"/>
			<point x="413" y="1320" type="line"/>
		</contour>
	</outline>
</glyph>
<glyph name="Z" format="2">
	<advance width="1318"/>
	<unicode hex="005A"/>
	<anchor x="624" y="1320" name="top"/>
	<anchor x="624" y="0" name="bottom"/>
	<outline>
		<contour>
			<point x="1256" y="1320" type="line"/>
			<point x="83" y="1320" type="line"/>
			<point x="83" y="984" type="line"/>
			<point x="581" y="984" type="line"/>
			<point x="-10" y="0" type="line"/>
			<point x="1213" y="0" type="line"/>
			<point x="1213" y="336" type="line"/>
			<point x="661" y="336" type="line"/>
		</contour>
	</outline>
</glyph>
<glyph name="bracketleft" format="2">
	<advance width="747"/>
	<unicode hex="005B"/>
	<outline>
		<contour>
			<point x="75" y="1376" type="line"/>
			<point x="75" y="-416" type="line"/>
			<point x="648" y="-416" type="line"/>
			<point x="648" y="-144" type="line"/>
			<point x="378" y="-144" type="line"/>
			<point x="378" y="1104" type="line"/>
			<point x="648" y="1104" type="line"/>
			<point x="648" y="1376" type="line"/>
		</contour>
	</outline>
</glyph>
<glyph name="asciicircum" format="2">
	<advance width="834"/>
	<unicode hex="005E"/>
	<outline>
		<contour>
			<point x="510" y="968" type="line"/>
			<point x="832" y="968" type="line"/>
			<point x="494" y="1344" type="line"/>
			<point x="317" y="1344" type="line"/>
			<point x="-21" y="968" type="line"/>
			<point x="302" y="968" type="line"/>
			<point x="405" y="1085" type="line"/>
		</contour>
	</outline>
</glyph>
<glyph name="grave" format="2">
	<advance width="661"/>
	<unicode hex="0060"/>
	<outline>
		<contour>
			<point x="54" y="1146" type="line"/>
			<point x="461" y="917" type="line"/>
			<point x="570" y="1067" type="line"/>
			<point x="230" y="1368" type="line"/>
		</contour>
	</outline>
</glyph>
<glyph name="a" format="2">
	<advance width="1174"/>
	<unicode hex="0061"/>
	<anchor x="1029" y="16" name="ogonek"/>
	<anchor x="570" y="0" name="bottom"/>
	<anchor x="570" y="821" name="top"/>
	<outline>
		<contour>
			<point x="690" y="115" type="curve"/>
			<point x="690" y="0" type="line"/>
			<point x="1078" y="0" type="line"/>
			<point x="1078" y="821" type="line"/>
			<point x="686" y="821" type="line"/>
			<point x="686" y="725" type="line"/>
			<point x="651" y="776"/>
			<point x="566" y="845"/>
			<point x="426" y="845" type="curve"/>
			<point x="179" y="845"/>
			<point x="32" y="635"/>
			<point x="32" y="410" type="curve"/>
			<point x="32" y="184"/>
			<point x="179" y="-24"/>
			<point x="426" y="-24" type="curve"/>
			<point x="573" y="-24"/>
			<point x="669" y="78"/>
		</contour>
		<contour>
			<point x="418" y="410" type="curve"/>
			<point x="418" y="410" type="line"/>
			<point x="418" y="478"/>
			<point x="472" y="541"/>
			<point x="552" y="541" type="curve"/>
			<point x="632" y="541"/>
			<point x="686" y="478"/>
			<point x="686" y="410" type="curve"/>
			<point x="686" y="341"/>
			<point x="632" y="280"/>
			<point x="552" y="280" type="curve"/>
			<point x="472" y="280"/>
			<point x="418" y="341"/>
		</contour>
	</outline>
</glyph>
<glyph name="b" format="2">
	<advance width="1165"/>
	<unicode hex="0062"/>
	<anchor x="587" y="1440" name="top"/>
	<anchor x="587" y="0" name="bottom"/>
	<outline>
		<contour>
			<point x="64" y="1376" type="line"/>
			<point x="64" y="0" type="line"/>
			<point x="453" y="0" type="line"/>
			<point x="453" y="115" type="line"/>
			<point x="506" y="34"/>
			<point x="613" y="-24"/>
			<point x="720" y="-24" type="curve"/>
			<point x="966" y="-24"/>
			<point x="1110" y="184"/>
			<point x="1110" y="410" type="curve"/>
			<point x="1110" y="635"/>
			<point x="966" y="845"/>
			<point x="720" y="845" type="curve"/>
			<point x="579" y="845"/>
			<point x="478" y="776"/>
			<point x="456" y="725" type="curve"/>
			<point x="456" y="1376" type="line"/>
		</contour>
		<contour>
			<point x="725" y="410" type="curve"/>
			<point x="725" y="410" type="line"/>
			<point x="725" y="341"/>
			<point x="670" y="280"/>
			<point x="590" y="280" type="curve"/>
			<point x="510" y="280"/>
			<point x="456" y="341"/>
			<point x="456" y="410" type="curve"/>
			<point x="456" y="478"/>
			<point x="510" y="541"/>
			<point x="590" y="541" type="curve"/>
			<point x="670" y="541"/>
			<point x="725" y="478"/>
		</contour>
	</outline>
</glyph>
<glyph name="e" format="2">
	<advance width="1027"/>
	<unicode hex="0065"/>
	<anchor x="898" y="16" name="ogonek"/>
	<anchor x="504" y="0" name="bottom"/>
	<anchor x="504" y="821" name="top"/>
	<outline>
		<contour>
			<point x="405" y="333" type="curve"/>
			<point x="405" y="333" type="line"/>
			<point x="960" y="333" type="line"/>
			<point x="963" y="342"/>
			<point x="963" y="384"/>
			<point x="963" y="395" type="curve"/>
			<point x="963" y="704"/>
			<point x="784" y="845"/>
			<point x="498" y="845" type="curve"/>
			<point x="202" y="845"/>
			<point x="32" y="658"/>
			<point x="32" y="419" type="curve"/>
			<point x="32" y="114"/>
			<point x="251" y="-24"/>
			<point x="530" y="-24" type="curve"/>
			<point x="778" y="-24"/>
			<point x="878" y="27"/>
			<point x="917" y="51" type="curve"/>
			<point x="776" y="298" type="line"/>
			<point x="733" y="269"/>
			<point x="645" y="258"/>
			<point x="557" y="258" type="curve"/>
			<point x="475" y="258"/>
			<point x="414" y="285"/>
		</contour>
		<contour>
			<point x="592" y="494" type="curve"/>
			<point x="592" y="494" type="line"/>
			<point x="413" y="494" type="line"/>
			<point x="414" y="566"/>
			<point x="458" y="592"/>
			<point x="504" y="592" type="curve"/>
			<point x="555" y="592"/>
			<point x="589" y="560"/>
		</contour>
	</outline>
</glyph>
<glyph name="l" format="2">
	<advance width="547"/>
	<unicode hex="006C"/>
	<anchor x="246" y="1045" name="center"/>
	<anchor x="246" y="1440" name="top"/>
	<anchor x="490" y="1440" name="topright"/>
	<anchor x="262" y="0" name="bottom"/>
	<outline>
		<contour>
			<point x="64" y="0" type="line"/>
			<point x="458" y="0" type="line"/>
			<point x="458" y="1376" type="line"/>
			<point x="64" y="1376" type="line"/>
		</contour>
	</outline>
</glyph>
<glyph name="m" format="2">
	<advance width="1696"/>
	<unicode hex="006D"/>
	<anchor x="824" y="821" name="top"/>
	<anchor x="824" y="0" name="bottom"/>
	<outline>
		<contour>
			<point x="1298" y="845" type="curve"/>
			<point x="1298" y="845" type="line"/>
			<point x="1155" y="845"/>
			<point x="1027" y="771"/>
			<point x="1002" y="709" type="curve"/>
			<point x="952" y="797"/>
			<point x="885" y="845"/>
			<point x="742" y="845" type="curve"/>
			<point x="611" y="845"/>
			<point x="480" y="771"/>
			<point x="454" y="710" type="curve"/>
			<point x="454" y="821" type="line"/>
			<point x="64" y="821" type="line"/>
			<point x="64" y="0" type="line"/>
			<point x="454" y="0" type="line"/>
			<point x="454" y="432" type="line" smooth="yes"/>
			<point x="454" y="501"/>
			<point x="488" y="571"/>
			<point x="573" y="571" type="curve"/>
			<point x="658" y="571"/>
			<point x="670" y="502"/>
			<point x="670" y="432" type="curve"/>
			<point x="670" y="0" type="line"/>
			<point x="1029" y="0" type="line"/>
			<point x="1029" y="432" type="line" smooth="yes"/>
			<point x="1029" y="501"/>
			<point x="1061" y="571"/>
			<point x="1146" y="571" type="curve"/>
			<point x="1230" y="571"/>
			<point x="1245" y="502"/>
			<point x="1245" y="432" type="curve"/>
			<point x="1245" y="0" type="line"/>
			<point x="1632" y="0" type="line"/>
			<point x="1632" y="485" type="line" smooth="yes"/>
			<point x="1632" y="736"/>
			<point x="1486" y="845"/>
		</contour>
	</outline>
</glyph>
<glyph name="o" format="2">
	<advance width="1053"/>
	<unicode hex="006F"/>
	<anchor x="510" y="597" name="center"/>
	<anchor x="918" y="16" name="ogonek"/>
	<anchor x="510" y="821" name="top"/>
	<anchor x="747" y="789" name="topright"/>
	<anchor x="510" y="-186" name="bottom"/>
	<outline>
		<contour>
			<point x="514" y="-24" type="curve"/>
			<point x="514" y="-24" type="line"/>
			<point x="794" y="-24"/>
			<point x="989" y="152"/>
			<point x="989" y="408" type="curve"/>
			<point x="989" y="664"/>
			<point x="794" y="845"/>
			<point x="514" y="845" type="curve"/>
			<point x="234" y="845"/>
			<point x="32" y="664"/>
			<point x="32" y="408" type="curve"/>
			<point x="32" y="152"/>
			<point x="234" y="-24"/>
		</contour>
		<contour>
			<point x="514" y="296" type="curve"/>
			<point x="514" y="296" type="line"/>
			<point x="448" y="296"/>
			<point x="408" y="339"/>
			<point x="408" y="410" type="curve"/>
			<point x="408" y="480"/>
			<point x="448" y="525"/>
			<point x="514" y="525" type="curve"/>
			<point x="579" y="525"/>
			<point x="618" y="480"/>
			<point x="618" y="410" type="curve"/>
			<point x="618" y="339"/>
			<point x="579" y="296"/>
		</contour>
	</outline>
</glyph>
<glyph name="s" format="2">
	<advance width="898"/>
	<unicode hex="0073"/>
	<anchor x="438" y="821" name="top"/>
	<anchor x="438" y="0" name="bottom"/>
	<outline>
		<contour>
			<point x="480" y="845" type="curve"/>
			<point x="480" y="845" type="line"/>
			<point x="275" y="845"/>
			<point x="78" y="765"/>
			<point x="78" y="587" type="curve"/>
			<point x="78" y="402"/>
			<point x="246" y="341"/>
			<point x="339" y="323" type="curve"/>
			<point x="416" y="309"/>
			<point x="448" y="296"/>
			<point x="448" y="275" type="curve"/>
			<point x="448" y="256"/>
			<point x="418" y="246"/>
			<point x="352" y="246" type="curve"/>
			<point x="272" y="246"/>
			<point x="184" y="293"/>
			<point x="149" y="320" type="curve"/>
			<point x="32" y="67" type="line"/>
			<point x="61" y="45"/>
			<point x="179" y="-24"/>
			<point x="392" y="-24" type="curve"/>
			<point x="574" y="-24"/>
			<point x="834" y="21"/>
			<point x="834" y="277" type="curve"/>
			<point x="834" y="453"/>
			<point x="672" y="510"/>
			<point x="562" y="530" type="curve"/>
			<point x="485" y="542"/>
			<point x="450" y="555"/>
			<point x="450" y="576" type="curve"/>
			<point x="450" y="597"/>
			<point x="483" y="603"/>
			<point x="528" y="603" type="curve"/>
			<point x="610" y="603"/>
			<point x="686" y="565"/>
			<point x="710" y="549" type="curve"/>
			<point x="830" y="776" type="line"/>
			<point x="808" y="792"/>
			<point x="661" y="845"/>
		</contour>
	</outline>
</glyph>
<glyph name="u" format="2">
	<advance width="1146"/>
	<unicode hex="0075"/>
	<anchor x="1010" y="16" name="ogonek"/>
	<anchor x="560" y="821" name="top"/>
	<anchor x="1066" y="821" name="topright"/>
	<anchor x="560" y="0" name="bottom"/>
	<outline>
		<contour>
			<point x="443" y="464" type="curve"/>
			<point x="443" y="464" type="line"/>
			<point x="443" y="821" type="line"/>
			<point x="56" y="821" type="line"/>
			<point x="56" y="426" type="line" smooth="yes"/>
			<point x="56" y="146"/>
			<point x="240" y="-24"/>
			<point x="560" y="-24" type="curve"/>
			<point x="882" y="-24"/>
			<point x="1066" y="146"/>
			<point x="1066" y="426" type="curve"/>
			<point x="1066" y="821" type="line"/>
			<point x="678" y="821" type="line"/>
			<point x="678" y="464" type="line" smooth="yes"/>
			<point x="678" y="362"/>
			<point x="653" y="296"/>
			<point x="560" y="296" type="curve"/>
			<point x="469" y="296"/>
			<point x="443" y="362"/>
		</contour>
	</outline>
</glyph>
<glyph name="x" format="2">
	<advance width="1142"/>
	<unicode hex="0078"/>
	<anchor x="563" y="821" name="top"/>
	<anchor x="563" y="0" name="bottom"/>
	<outline>
		<contour>
			<point x="1126" y="0" type="line"/>
			<point x="782" y="445" type="line"/>
			<point x="1077" y="821" type="line"/>
			<point x="685" y="821" type="line"/>
			<point x="573" y="661" type="line"/>
			<point x="470" y="821" type="line"/>
			<point x="34" y="821" type="line"/>
			<point x="344" y="413" type="line"/>
			<point x="0" y="0" type="line"/>
			<point x="400" y="0" type="line"/>
			<point x="547" y="202" type="line"/>
			<point x="693" y="0" type="line"/>
		</contour>
	</outline>
</glyph>
<glyph name="asciitilde" format="2">
	<advance width="1150"/>
	<unicode hex="007E"/>
	<outline>
		<contour>
			<point x="1054" y="704" type="curve"/>
			<point x="1054" y="704" type="line"/>
			<point x="845" y="843" type="line"/>
			<point x="816" y="803"/>
			<point x="757" y="752"/>
			<point x="701" y="752" type="curve"/>
			<point x="629" y="752"/>
			<point x="552" y="859"/>
			<point x="392" y="859" type="curve"/>
			<point x="262" y="859"/>
			<point x="133" y="726"/>
			<point x="72" y="626" type="curve"/>
			<point x="280" y="488" type="line"/>
			<point x="309" y="526"/>
			<point x="368" y="578"/>
			<point x="424" y="578" type="curve"/>
			<point x="496" y="578"/>
			<point x="579" y="470"/>
			<point x="734" y="470" type="curve"/>
			<point x="864" y="470"/>
			<point x="994" y="603"/>
		</contour>
	</outline>
</glyph>
<glyph name="cent" format="2">
	<advance width="867"/>
	<unicode hex="00A2"/>
	<outline>
		<contour>
			<point x="614" y="1018" type="line"/>
			<point x="400" y="1018" type="line"/>
			<point x="400" y="790" type="line"/>
			<point x="614" y="790" type="line"/>
		</contour>
		<contour>
			<point x="614" y="21" type="line"/>
			<point x="400" y="21" type="line"/>
			<point x="400" y="-206" type="line"/>
			<point x="614" y="-206" type="line"/>
		</contour>
		<component base="c"/>
	</outline>
</glyph>
<glyph name="currency" format="2">
	<advance width="1085"/>
	<unicode hex="00A4"/>
	<outline>
		<contour>
			<point x="1056" y="922" type="line"/>
			<point x="904" y="1072" type="line"/>
			<point x="744" y="912" type="line"/>
			<point x="894" y="760" type="line"/>
		</contour>
		<contour>
			<point x="350" y="216" type="line"/>
			<point x="200" y="368" type="line"/>
			<point x="38" y="206" type="line"/>
			<point x="190" y="56" type="line"/>
		</contour>
		<contour>
			<point x="350" y="912" type="line"/>
			<point x="190" y="1072" type="line"/>
			<point x="38" y="922" type="line"/>
			<point x="200" y="760" type="line"/>
		</contour>
		<contour>
			<point x="1056" y="206" type="line"/>
			<point x="894" y="368" type="line"/>
			<point x="744" y="216" type="line"/>
			<point x="904" y="56" type="line"/>
		</contour>
		<component base="o" xOffset="32" yOffset="160"/>
	</outline>
</glyph>
<glyph name="yen" format="2">
	<advance width="1266"/>
	<unicode hex="00A5"/>
	<outline>
		<contour>
			<point x="1115" y="739" type="line"/>
			<point x="83" y="739" type="line"/>
			<point x="83" y="509" type="line"/>
			<point x="1115" y="509" type="line"/>
		</contour>
		<contour>
			<point x="1115" y="395" type="line"/>
			<point x="83" y="395" type="line"/>
			<point x="83" y="165" type="line"/>
			<point x="1115" y="165" type="line"/>
		</contour>
		<component base="Y"/>
	</outline>
</glyph>
<glyph name="brokenbar" format="2">
	<advance width="477"/>
	<unicode hex="00A6"/>
	<outline>
		<contour>
			<point x="69" y="845" type="line"/>
			<point x="386" y="845" type="line"/>
			<point x="386" y="1376" type="line"/>
			<point x="69" y="1376" type="line"/>
		</contour>
		<contour>
			<point x="69" y="0" type="line"/>
			<point x="386" y="0" type="line"/>
			<point x="386" y="531" type="line"/>
			<point x="69" y="531" type="line"/>
		</contour>
	</outline>
</glyph>
<glyph name="section" format="2">
	<advance width="1064"/>
	<unicode hex="00A7"/>
	<outline>
		<contour>
			<point x="470" y="-440" type="curve"/>
			<point x="470" y="-440" type="line"/>
			<point x="752" y="-440"/>
			<point x="938" y="-301"/>
			<point x="938" y="-90" type="curve"/>
			<point x="938" y="40"/>
			<point x="888" y="134"/>
			<point x="784" y="195" type="curve"/>
			<point x="933" y="261"/>
			<point x="1024" y="360"/>
			<point x="1024" y="507" type="curve"/>
			<point x="1024" y="690"/>
			<point x="890" y="810"/>
			<point x="688" y="880" type="curve"/>
			<point x="496" y="947"/>
			<point x="491" y="978"/>
			<point x="491" y="1000" type="curve"/>
			<point x="491" y="1019"/>
			<point x="507" y="1035"/>
			<point x="542" y="1035" type="curve"/>
			<point x="582" y="1035"/>
			<point x="610" y="995"/>
			<point x="619" y="966" type="curve"/>
			<point x="954" y="1037" type="line"/>
			<point x="931" y="1170"/>
			<point x="803" y="1344"/>
			<point x="539" y="1344" type="curve"/>
			<point x="259" y="1344"/>
			<point x="96" y="1184"/>
			<point x="96" y="995" type="curve"/>
			<point x="96" y="875"/>
			<point x="158" y="773"/>
			<point x="254" y="704" type="curve"/>
			<point x="154" y="670"/>
			<point x="10" y="536"/>
			<point x="10" y="390" type="curve"/>
			<point x="10" y="219"/>
			<point x="101" y="101"/>
			<point x="304" y="32" type="curve"/>
			<point x="482" y="-29"/>
			<point x="531" y="-66"/>
			<point x="531" y="-93" type="curve"/>
			<point x="531" y="-123"/>
			<point x="509" y="-131"/>
			<point x="470" y="-131" type="curve"/>
			<point x="408" y="-131"/>
			<point x="374" y="-78"/>
			<point x="365" y="-38" type="curve"/>
			<point x="22" y="-125" type="line"/>
			<point x="45" y="-261"/>
			<point x="182" y="-440"/>
		</contour>
		<contour>
			<point x="450" y="579" type="curve"/>
			<point x="450" y="579" type="line"/>
			<point x="450" y="579"/>
			<point x="509" y="552"/>
			<point x="509" y="552" type="curve"/>
			<point x="587" y="515"/>
			<point x="672" y="467"/>
			<point x="672" y="422" type="curve"/>
			<point x="672" y="366"/>
			<point x="634" y="336"/>
			<point x="560" y="318" type="curve"/>
			<point x="550" y="325"/>
			<point x="525" y="338"/>
			<point x="520" y="339" type="curve"/>
			<point x="440" y="374"/>
			<point x="362" y="410"/>
			<point x="362" y="470" type="curve"/>
			<point x="362" y="518"/>
			<point x="394" y="563"/>
		</contour>
	</outline>
</glyph>
<glyph name="copyright" format="2">
	<advance width="1482"/>
	<unicode hex="00A9"/>
	<outline>
		<contour>
			<point x="45" y="659" type="curve"/>
			<point x="45" y="659" type="line"/>
			<point x="45" y="283"/>
			<point x="352" y="-24"/>
			<point x="728" y="-24" type="curve"/>
			<point x="1106" y="-24"/>
			<point x="1413" y="283"/>
			<point x="1413" y="659" type="curve"/>
			<point x="1413" y="1037"/>
			<point x="1106" y="1344"/>
			<point x="728" y="1344" type="curve"/>
			<point x="352" y="1344"/>
			<point x="45" y="1037"/>
		</contour>
		<contour>
			<point x="266" y="659" type="curve"/>
			<point x="266" y="659" type="line"/>
			<point x="266" y="915"/>
			<point x="474" y="1123"/>
			<point x="728" y="1123" type="curve"/>
			<point x="984" y="1123"/>
			<point x="1192" y="915"/>
			<point x="1192" y="659" type="curve"/>
			<point x="1192" y="405"/>
			<point x="984" y="197"/>
			<point x="728" y="197" type="curve"/>
			<point x="474" y="197"/>
			<point x="266" y="405"/>
		</contour>
		<contour>
			<point x="787" y="787" type="curve"/>
			<point x="787" y="787" type="line"/>
			<point x="720" y="787"/>
			<point x="674" y="723"/>
			<point x="674" y="662" type="curve"/>
			<point x="674" y="598"/>
			<point x="720" y="534"/>
			<point x="787" y="534" type="curve"/>
			<point x="827" y="534"/>
			<point x="858" y="549"/>
			<point x="864" y="554" type="curve"/>
			<point x="949" y="381" type="line"/>
			<point x="949" y="381"/>
			<point x="861" y="328"/>
			<point x="739" y="328" type="curve"/>
			<point x="558" y="328"/>
			<point x="390" y="475"/>
			<point x="390" y="659" type="curve"/>
			<point x="390" y="846"/>
			<point x="558" y="997"/>
			<point x="739" y="997" type="curve"/>
			<point x="875" y="997"/>
			<point x="944" y="946"/>
			<point x="949" y="941" type="curve"/>
			<point x="867" y="771" type="line"/>
			<point x="867" y="771"/>
			<point x="816" y="787"/>
		</contour>
	</outline>
</glyph>
<glyph name="ordfeminine" format="2">
	<advance width="859"/>
	<unicode hex="00AA"/>
	<outline>
		<contour>
			<point x="104" y="1074" type="curve"/>
			<point x="104" y="1074" type="line"/>
			<point x="104" y="938"/>
			<point x="202" y="806"/>
			<point x="355" y="806" type="curve"/>
			<point x="418" y="806"/>
			<point x="472" y="827"/>
			<point x="520" y="872" type="curve"/>
			<point x="522" y="872" type="line"/>
			<point x="522" y="821" type="line"/>
			<point x="733" y="821" type="line"/>
			<point x="733" y="1328" type="line"/>
			<point x="520" y="1328" type="line"/>
			<point x="520" y="1290" type="line"/>
			<point x="462" y="1333"/>
			<point x="413" y="1344"/>
			<point x="355" y="1344" type="curve"/>
			<point x="202" y="1344"/>
			<point x="104" y="1211"/>
		</contour>
		<contour>
			<point x="336" y="1074" type="curve"/>
			<point x="336" y="1074" type="line"/>
			<point x="336" y="1123"/>
			<point x="376" y="1165"/>
			<point x="432" y="1165" type="curve"/>
			<point x="483" y="1165"/>
			<point x="523" y="1126"/>
			<point x="523" y="1074" type="curve"/>
			<point x="523" y="1021"/>
			<point x="486" y="984"/>
			<point x="432" y="984" type="curve"/>
			<point x="370" y="984"/>
			<point x="336" y="1026"/>
		</contour>
	</outline>
</glyph>
<glyph name="guillemotleft" format="2">
	<advance width="1040"/>
	<unicode hex="00AB"/>
	<outline>
		<contour>
			<point x="354" y="29" type="line"/>
			<point x="541" y="176" type="line"/>
			<point x="334" y="445" type="line"/>
			<point x="541" y="714" type="line"/>
			<point x="354" y="862" type="line"/>
			<point x="29" y="445" type="line"/>
		</contour>
		<contour>
			<point x="766" y="29" type="line"/>
			<point x="954" y="176" type="line"/>
			<point x="747" y="445" type="line"/>
			<point x="954" y="714" type="line"/>
			<point x="766" y="862" type="line"/>
			<point x="442" y="445" type="line"/>
		</contour>
	</outline>
</glyph>
<glyph name="logicalnot" format="2">
	<advance width="1120"/>
	<unicode hex="00AC"/>
	<outline>
		<contour>
			<point x="970" y="88" type="line"/>
			<point x="970" y="621" type="line"/>
			<point x="104" y="621" type="line"/>
			<point x="104" y="288" type="line"/>
			<point x="637" y="288" type="line"/>
			<point x="637" y="88" type="line"/>
		</contour>
	</outline>
</glyph>
<glyph name="registered" format="2">
	<advance width="830"/>
	<unicode hex="00AE"/>
	<outline>
		<contour>
			<point x="45" y="984" type="curve"/>
			<point x="45" y="984" type="line"/>
			<point x="45" y="787"/>
			<point x="206" y="627"/>
			<point x="402" y="627" type="curve"/>
			<point x="602" y="627"/>
			<point x="762" y="787"/>
			<point x="762" y="984" type="curve"/>
			<point x="762" y="1182"/>
			<point x="602" y="1344"/>
			<point x="402" y="1344" type="curve"/>
			<point x="206" y="1344"/>
			<point x="45" y="1182"/>
		</contour>
		<contour>
			<point x="162" y="984" type="curve"/>
			<point x="162" y="984" type="line"/>
			<point x="162" y="1118"/>
			<point x="270" y="1227"/>
			<point x="402" y="1227" type="curve"/>
			<point x="538" y="1227"/>
			<point x="645" y="1118"/>
			<point x="645" y="984" type="curve"/>
			<point x="645" y="851"/>
			<point x="538" y="744"/>
			<point x="402" y="744" type="curve"/>
			<point x="270" y="744"/>
			<point x="162" y="851"/>
		</contour>
		<contour>
			<point x="410" y="1152" type="curve"/>
			<point x="286" y="1152" type="line"/>
			<point x="286" y="821" type="line"/>
			<point x="371" y="821" type="line"/>
			<point x="371" y="952" type="line"/>
			<point x="355" y="952" type="line"/>
			<point x="466" y="821" type="line"/>
			<point x="579" y="821" type="line"/>
			<point x="448" y="958" type="line"/>
			<point x="488" y="973"/>
			<point x="518" y="1003"/>
			<point x="518" y="1054" type="curve"/>
			<point x="518" y="1118"/>
			<point x="472" y="1152"/>
		</contour>
		<contour>
			<point x="365" y="1011" type="curve"/>
			<point x="371" y="1011" type="line"/>
			<point x="371" y="1086" type="line"/>
			<point x="366" y="1086" type="line" smooth="yes"/>
			<point x="386" y="1086"/>
			<point x="426" y="1088"/>
			<point x="426" y="1046" type="curve"/>
			<point x="426" y="1006"/>
			<point x="387" y="1011"/>
		</contour>
	</outline>
</glyph>
<glyph name="macron" format="2">
	<advance width="917"/>
	<unicode hex="00AF"/>
	<outline>
		<contour>
			<point x="99" y="1229" type="line"/>
			<point x="99" y="992" type="line"/>
			<point x="795" y="992" type="line"/>
			<point x="795" y="1229" type="line"/>
		</contour>
	</outline>
</glyph>
<glyph name="degree" format="2">
	<advance width="635"/>
	<unicode hex="00B0"/>
	<outline>
		<contour>
			<point x="99" y="1235" type="curve"/>
			<point x="99" y="1235" type="line"/>
			<point x="99" y="1131"/>
			<point x="184" y="1056"/>
			<point x="306" y="1056" type="curve"/>
			<point x="426" y="1056"/>
			<point x="510" y="1131"/>
			<point x="510" y="1235" type="curve"/>
			<point x="510" y="1341"/>
			<point x="419" y="1414"/>
			<point x="306" y="1414" type="curve"/>
			<point x="190" y="1414"/>
			<point x="99" y="1341"/>
		</contour>
		<contour>
			<point x="242" y="1235" type="curve"/>
			<point x="242" y="1235" type="line"/>
			<point x="242" y="1275"/>
			<point x="270" y="1304"/>
			<point x="306" y="1304" type="curve"/>
			<point x="341" y="1304"/>
			<point x="370" y="1275"/>
			<point x="370" y="1235" type="curve"/>
			<point x="370" y="1198"/>
			<point x="342" y="1165"/>
			<point x="306" y="1165" type="curve"/>
			<point x="267" y="1165"/>
			<point x="242" y="1197"/>
		</contour>
	</outline>
</glyph>
<glyph name="acute" format="2">
	<advance width="946"/>
	<unicode hex="00B4"/>
	<outline>
		<contour>
			<point x="210" y="1067" type="line"/>
			<point x="318" y="917" type="line"/>
			<point x="725" y="1146" type="line"/>
			<point x="549" y="1368" type="line"/>
		</contour>
	</outline>
</glyph>
<glyph name="uni00B5" format="2">
	<advance width="1146"/>
	<unicode hex="00B5"/>
	<outline>
		<contour>
			<point x="443" y="821" type="line"/>
			<point x="56" y="821" type="line"/>
			<point x="56" y="-392" type="line"/>
			<point x="443" y="-392" type="line"/>
		</contour>
		<component base="u"/>
	</outline>
</glyph>
<glyph name="paragraph" format="2">
	<advance width="1173"/>
	<unicode hex="00B6"/>
	<outline>
		<contour>
			<point x="901" y="0" type="line"/>
			<point x="1104" y="0" type="line"/>
			<point x="1104" y="1320" type="line"/>
			<point x="419" y="1320" type="line" smooth="yes"/>
			<point x="168" y="1320"/>
			<point x="-14" y="1139"/>
			<point x="-14" y="885" type="curve"/>
			<point x="-14" y="632"/>
			<point x="168" y="432"/>
			<point x="419" y="432" type="curve"/>
			<point x="608" y="432" type="line"/>
			<point x="608" y="0" type="line"/>
			<point x="813" y="0" type="line"/>
			<point x="813" y="1118" type="line"/>
			<point x="901" y="1118" type="line"/>
		</contour>
	</outline>
</glyph>
<glyph name="cedilla" format="2">
	<advance width="754"/>
	<unicode hex="00B8"/>
	<outline>
		<contour>
			<point x="450" y="3" type="line"/>
			<point x="325" y="42" type="line"/>
			<point x="248" y="-168" type="line"/>
			<point x="253" y="-176" type="line"/>
			<point x="259" y="-170"/>
			<point x="285" y="-162"/>
			<point x="326" y="-162" type="curve"/>
			<point x="371" y="-162"/>
			<point x="414" y="-182"/>
			<point x="414" y="-224" type="curve"/>
			<point x="414" y="-254"/>
			<point x="394" y="-274"/>
			<point x="358" y="-274" type="curve"/>
			<point x="309" y="-274"/>
			<point x="261" y="-235"/>
			<point x="237" y="-206" type="curve"/>
			<point x="115" y="-341" type="line"/>
			<point x="149" y="-382"/>
			<point x="246" y="-438"/>
			<point x="392" y="-438" type="curve"/>
			<point x="528" y="-438"/>
			<point x="634" y="-358"/>
			<point x="634" y="-230" type="curve"/>
			<point x="634" y="-130"/>
			<point x="544" y="-61"/>
			<point x="421" y="-61" type="curve"/>
		</contour>
	</outline>
</glyph>
<glyph name="AE" format="2">
	<advance width="1763"/>
	<unicode hex="00C6"/>
	<outline>
		<contour>
			<point x="1064" y="1320" type="line"/>
			<point x="664" y="1320" type="line"/>
			<point x="-34" y="0" type="line"/>
			<point x="387" y="0" type="line"/>
			<point x="501" y="229" type="line"/>
			<point x="978" y="229" type="line"/>
		</contour>
		<contour>
			<point x="802" y="517" type="line"/>
			<point x="645" y="517" type="line"/>
			<point x="798" y="802" type="line"/>
			<point x="802" y="802" type="line"/>
		</contour>
		<component base="E" xOffset="717"/>
	</outline>
</glyph>
<glyph name="Eth" format="2">
	<advance width="1330"/>
	<unicode hex="00D0"/>
	<outline>
		<contour>
			<point x="541" y="1320" type="curve"/>
			<point x="541" y="1320" type="line"/>
			<point x="109" y="1320" type="line"/>
			<point x="109" y="818" type="line"/>
			<point x="14" y="818" type="line"/>
			<point x="14" y="502" type="line"/>
			<point x="109" y="502" type="line"/>
			<point x="109" y="0" type="line"/>
			<point x="541" y="0" type="line" smooth="yes"/>
			<point x="880" y="0"/>
			<point x="1232" y="274"/>
			<point x="1232" y="659" type="curve"/>
			<point x="1232" y="1045"/>
			<point x="883" y="1320"/>
		</contour>
		<contour>
			<point x="506" y="341" type="curve"/>
			<point x="506" y="341" type="line"/>
			<point x="496" y="341" type="line"/>
			<point x="496" y="502" type="line"/>
			<point x="643" y="502" type="line"/>
			<point x="643" y="818" type="line"/>
			<point x="496" y="818" type="line"/>
			<point x="496" y="979" type="line"/>
			<point x="506" y="979" type="line" smooth="yes"/>
			<point x="670" y="979"/>
			<point x="808" y="821"/>
			<point x="810" y="661" type="curve"/>
			<point x="811" y="501"/>
			<point x="674" y="341"/>
		</contour>
	</outline>
</glyph>
<glyph name="multiply" format="2">
	<advance width="1053"/>
	<unicode hex="00D7"/>
	<outline>
		<contour>
			<point x="955" y="446" type="line"/>
			<point x="738" y="662" type="line"/>
			<point x="955" y="880" type="line"/>
			<point x="731" y="1102" type="line"/>
			<point x="514" y="888" type="line"/>
			<point x="298" y="1102" type="line"/>
			<point x="75" y="882" type="line"/>
			<point x="290" y="664" type="line"/>
			<point x="75" y="450" type="line"/>
			<point x="298" y="224" type="line"/>
			<point x="515" y="442" type="line"/>
			<point x="734" y="224" type="line"/>
		</contour>
	</outline>
</glyph>
<glyph name="Oslash" format="2">
	<advance width="1491"/>
	<unicode hex="00D8"/>
	<outline>
		<contour>
			<point x="1429" y="1283" type="line"/>
			<point x="1301" y="1397" type="line"/>
			<point x="-10" y="29" type="line"/>
			<point x="118" y="-85" type="line"/>
		</contour>
		<component base="O"/>
	</outline>
</glyph>
<glyph name="eth" format="2">
	<advance width="1134"/>
	<unicode hex="00F0"/>
	<outline>
		<contour>
			<point x="53" y="410" type="curve"/>
			<point x="53" y="410" type="line"/>
			<point x="53" y="157"/>
			<point x="266" y="-24"/>
			<point x="570" y="-24" type="curve"/>
			<point x="851" y="-24"/>
			<point x="1080" y="158"/>
			<point x="1080" y="464" type="curve"/>
			<point x="1080" y="805"/>
			<point x="930" y="1066"/>
			<point x="741" y="1203" type="curve"/>
			<point x="805" y="1270" type="line"/>
			<point x="666" y="1421" type="line"/>
			<point x="558" y="1320" type="line"/>
			<point x="405" y="1394"/>
			<point x="278" y="1434"/>
			<point x="227" y="1443" type="curve"/>
			<point x="146" y="1139" type="line"/>
			<point x="174" y="1133"/>
			<point x="240" y="1110"/>
			<point x="315" y="1078" type="curve"/>
			<point x="230" y="994" type="line"/>
			<point x="376" y="846" type="line"/>
			<point x="525" y="987" type="line"/>
			<point x="578" y="950"/>
			<point x="642" y="850"/>
			<point x="658" y="802" type="curve"/>
			<point x="634" y="827"/>
			<point x="605" y="845"/>
			<point x="502" y="845" type="curve"/>
			<point x="314" y="845"/>
			<point x="53" y="710"/>
		</contour>
		<contour>
			<point x="440" y="410" type="curve"/>
			<point x="440" y="410" type="line"/>
			<point x="440" y="480"/>
			<point x="490" y="539"/>
			<point x="566" y="539" type="curve"/>
			<point x="643" y="539"/>
			<point x="693" y="483"/>
			<point x="693" y="410" type="curve"/>
			<point x="693" y="339"/>
			<point x="643" y="283"/>
			<point x="566" y="283" type="curve"/>
			<point x="490" y="283"/>
			<point x="440" y="341"/>
		</contour>
	</outline>
</glyph>
<glyph name="divide" format="2">
	<advance width="1053"/>
	<unicode hex="00F7"/>
	<outline>
		<contour>
			<point x="512" y="1194" type="curve"/>
			<point x="512" y="1194" type="line"/>
			<point x="430" y="1194"/>
			<point x="363" y="1126"/>
			<point x="363" y="1042" type="curve"/>
			<point x="363" y="960"/>
			<point x="430" y="893"/>
			<point x="512" y="893" type="curve"/>
			<point x="597" y="893"/>
			<point x="664" y="960"/>
			<point x="664" y="1042" type="curve"/>
			<point x="664" y="1126"/>
			<point x="597" y="1194"/>
		</contour>
		<contour>
			<point x="86" y="822" type="line"/>
			<point x="86" y="506" type="line"/>
			<point x="944" y="506" type="line"/>
			<point x="944" y="822" type="line"/>
		</contour>
		<contour>
			<point x="512" y="434" type="curve"/>
			<point x="512" y="434" type="line"/>
			<point x="430" y="434"/>
			<point x="363" y="366"/>
			<point x="363" y="282" type="curve"/>
			<point x="363" y="200"/>
			<point x="430" y="133"/>
			<point x="512" y="133" type="curve"/>
			<point x="597" y="133"/>
			<point x="664" y="200"/>
			<point x="664" y="282" type="curve"/>
			<point x="664" y="366"/>
			<point x="597" y="434"/>
		</contour>
	</outline>
</glyph>
<glyph name="thorn" format="2">
	<advance width="1165"/>
	<unicode hex="00FE"/>
	<outline>
		<contour>
			<point x="453" y="0" type="line"/>
			<point x="64" y="0" type="line"/>
			<point x="64" y="-416" type="line"/>
			<point x="453" y="-416" type="line"/>
		</contour>
		<component base="b"/>
	</outline>
</glyph>
<glyph name="Hbar" format="2">
	<advance width="1302"/>
	<unicode hex="0126"/>
	<outline>
		<contour>
			<point x="1258" y="1194" type="line"/>
			<point x="-34" y="1194" type="line"/>
			<point x="-34" y="954" type="line"/>
			<point x="1258" y="954" type="line"/>
		</contour>
		<component base="H"/>
	</outline>
</glyph>
<glyph name="hbar" format="2">
	<advance width="1160"/>
	<unicode hex="0127"/>
	<outline>
		<contour>
			<point x="-40" y="1216" type="line"/>
			<point x="-40" y="990" type="line"/>
			<point x="597" y="990" type="line"/>
			<point x="597" y="1216" type="line"/>
		</contour>
		<component base="h"/>
	</outline>
</glyph>
<glyph name="dotlessi" format="2">
	<advance width="470"/>
	<unicode hex="0131"/>
	<anchor x="424" y="16" name="ogonek"/>
	<anchor x="224" y="0" name="bottom"/>
	<anchor x="224" y="821" name="top"/>
	<outline>
		<contour>
			<point x="42" y="821" type="line"/>
			<point x="42" y="0" type="line"/>
			<point x="405" y="0" type="line"/>
			<point x="405" y="821" type="line"/>
		</contour>
	</outline>
</glyph>
<glyph name="kgreenlandic" format="2">
	<advance width="1158"/>
	<unicode hex="0138"/>
	<anchor x="566" y="821" name="top"/>
	<anchor x="618" y="0" name="bottom"/>
	<outline>
		<contour>
			<point x="1125" y="0" type="line"/>
			<point x="715" y="411" type="line"/>
			<point x="1066" y="821" type="line"/>
			<point x="630" y="821" type="line"/>
			<point x="416" y="542" type="line"/>
			<point x="416" y="821" type="line"/>
			<point x="29" y="821" type="line"/>
			<point x="29" y="0" type="line"/>
			<point x="416" y="0" type="line"/>
			<point x="416" y="274" type="line"/>
			<point x="664" y="0" type="line"/>
		</contour>
	</outline>
</glyph>
<glyph name="Lslash" format="2">
	<advance width="1050"/>
	<unicode hex="0141"/>
	<outline>
		<contour>
			<point x="131" y="435" type="line"/>
			<point x="131" y="0" type="line"/>
			<point x="936" y="0" type="line"/>
			<point x="936" y="336" type="line"/>
			<point x="518" y="336" type="line"/>
			<point x="518" y="741" type="line"/>
			<point x="704" y="888" type="line"/>
			<point x="704" y="1184" type="line"/>
			<point x="518" y="1035" type="line"/>
			<point x="518" y="1320" type="line"/>
			<point x="131" y="1320" type="line"/>
			<point x="131" y="731" type="line"/>
			<point x="19" y="645" type="line"/>
			<point x="19" y="350" type="line"/>
		</contour>
	</outline>
</glyph>
<glyph name="Eng" format="2">
	<advance width="1509"/>
	<unicode hex="014A"/>
	<outline>
		<contour>
			<point x="973" y="0" type="line"/>
			<point x="1376" y="0" type="line"/>
			<point x="1376" y="-24" type="line" smooth="yes"/>
			<point x="1376" y="-222"/>
			<point x="1278" y="-440"/>
			<point x="1019" y="-440" type="curve"/>
			<point x="861" y="-440"/>
			<point x="779" y="-405"/>
			<point x="725" y="-381" type="curve"/>
			<point x="846" y="-80" type="line"/>
			<point x="864" y="-88"/>
			<point x="894" y="-98"/>
			<point x="912" y="-98" type="curve"/>
			<point x="942" y="-98"/>
			<point x="973" y="-78"/>
			<point x="973" y="-40" type="curve"/>
		</contour>
		<component base="N"/>
	</outline>
</glyph>
<glyph name="OE" format="2">
	<advance width="1704"/>
	<unicode hex="0152"/>
	<anchor x="816" y="1320" name="top"/>
	<anchor x="816" y="0" name="bottom"/>
	<outline>
		<contour>
			<point x="701" y="0" type="curve"/>
			<point x="701" y="0" type="line"/>
			<point x="1581" y="0" type="line"/>
			<point x="1581" y="336" type="line"/>
			<point x="1176" y="336" type="line"/>
			<point x="1176" y="494" type="line"/>
			<point x="1562" y="494" type="line"/>
			<point x="1562" y="829" type="line"/>
			<point x="1176" y="829" type="line"/>
			<point x="1176" y="984" type="line"/>
			<point x="1581" y="984" type="line"/>
			<point x="1581" y="1320" type="line"/>
			<point x="701" y="1320" type="line" smooth="yes"/>
			<point x="338" y="1320"/>
			<point x="13" y="1045"/>
			<point x="13" y="659" type="curve"/>
			<point x="13" y="274"/>
			<point x="349" y="0"/>
		</contour>
		<contour>
			<point x="789" y="346" type="line"/>
			<point x="750" y="346" type="line"/>
			<point x="573" y="346"/>
			<point x="432" y="480"/>
			<point x="432" y="661" type="curve"/>
			<point x="432" y="838"/>
			<point x="566" y="974"/>
			<point x="750" y="974" type="curve"/>
			<point x="789" y="974" type="line"/>
		</contour>
	</outline>
</glyph>
<glyph name="uni018F" format="2">
	<advance width="1410"/>
	<unicode hex="018F"/>
	<outline>
		<contour>
			<point x="670" y="-26" type="curve"/>
			<point x="670" y="-26" type="line"/>
			<point x="1062" y="-26"/>
			<point x="1322" y="226"/>
			<point x="1322" y="661" type="curve"/>
			<point x="1322" y="1112"/>
			<point x="1022" y="1344"/>
			<point x="664" y="1344" type="curve"/>
			<point x="368" y="1344"/>
			<point x="163" y="1194"/>
			<point x="99" y="1128" type="curve"/>
			<point x="387" y="874" type="line"/>
			<point x="432" y="926"/>
			<point x="514" y="998"/>
			<point x="666" y="998" type="curve"/>
			<point x="827" y="998"/>
			<point x="933" y="898"/>
			<point x="933" y="779" type="curve"/>
			<point x="42" y="779" type="line"/>
			<point x="38" y="770"/>
			<point x="38" y="680"/>
			<point x="38" y="669" type="curve"/>
			<point x="38" y="259"/>
			<point x="278" y="-26"/>
		</contour>
		<contour>
			<point x="674" y="291" type="curve"/>
			<point x="674" y="291" type="line"/>
			<point x="494" y="291"/>
			<point x="426" y="419"/>
			<point x="426" y="522" type="curve"/>
			<point x="925" y="522" type="line"/>
			<point x="925" y="413"/>
			<point x="848" y="291"/>
		</contour>
	</outline>
</glyph>
<glyph name="florin" format="2">
	<advance width="742"/>
	<unicode hex="0192"/>
	<outline>
		<contour>
			<point x="-10" y="-435" type="curve"/>
			<point x="-10" y="-435" type="line"/>
			<point x="189" y="-435"/>
			<point x="402" y="-294"/>
			<point x="434" y="-62" type="curve"/>
			<point x="512" y="501" type="line"/>
			<point x="662" y="501" type="line"/>
			<point x="707" y="821" type="line"/>
			<point x="557" y="821" type="line"/>
			<point x="581" y="995" type="line" smooth="yes"/>
			<point x="589" y="1050"/>
			<point x="626" y="1069"/>
			<point x="654" y="1069" type="curve"/>
			<point x="685" y="1069"/>
			<point x="704" y="1051"/>
			<point x="707" y="1048" type="curve"/>
			<point x="882" y="1349" type="line"/>
			<point x="875" y="1357"/>
			<point x="782" y="1400"/>
			<point x="635" y="1400" type="curve"/>
			<point x="437" y="1400"/>
			<point x="224" y="1259"/>
			<point x="192" y="1027" type="curve"/>
			<point x="163" y="821" type="line"/>
			<point x="50" y="821" type="line"/>
			<point x="5" y="501" type="line"/>
			<point x="118" y="501" type="line"/>
			<point x="45" y="-30" type="line"/>
			<point x="37" y="-85"/>
			<point x="0" y="-104"/>
			<point x="-29" y="-104" type="curve"/>
			<point x="-59" y="-104"/>
			<point x="-78" y="-86"/>
			<point x="-82" y="-83" type="curve"/>
			<point x="-256" y="-384" type="line"/>
			<point x="-250" y="-392"/>
			<point x="-157" y="-435"/>
		</contour>
	</outline>
</glyph>
<glyph name="uni0237" format="2">
	<advance width="579"/>
	<unicode hex="0237"/>
	<anchor x="290" y="821" name="top"/>
	<anchor x="290" y="-416" name="bottom"/>
	<outline>
		<contour>
			<point x="109" y="-440" type="curve"/>
			<point x="109" y="-440" type="line"/>
			<point x="360" y="-440"/>
			<point x="474" y="-282"/>
			<point x="474" y="-91" type="curve"/>
			<point x="474" y="821" type="line"/>
			<point x="80" y="821" type="line"/>
			<point x="80" y="-40" type="line" smooth="yes"/>
			<point x="80" y="-94"/>
			<point x="46" y="-114"/>
			<point x="16" y="-114" type="curve"/>
			<point x="-5" y="-114"/>
			<point x="-30" y="-109"/>
			<point x="-54" y="-91" type="curve"/>
			<point x="-168" y="-381" type="line"/>
			<point x="-120" y="-408"/>
			<point x="-32" y="-440"/>
		</contour>
	</outline>
</glyph>
<glyph name="circumflex" format="2">
	<advance width="971"/>
	<unicode hex="02C6"/>
	<outline>
		<contour>
			<point x="85" y="1070" type="line"/>
			<point x="216" y="896" type="line"/>
			<point x="475" y="1085" type="line"/>
			<point x="733" y="896" type="line"/>
			<point x="864" y="1070" type="line"/>
			<point x="475" y="1355" type="line"/>
		</contour>
	</outline>
</glyph>
<glyph name="caron" format="2">
	<advance width="971"/>
	<unicode hex="02C7"/>
	<outline>
		<contour>
			<point x="216" y="1386" type="line"/>
			<point x="85" y="1211" type="line"/>
			<point x="475" y="925" type="line"/>
			<point x="864" y="1210" type="line"/>
			<point x="733" y="1384" type="line"/>
			<point x="475" y="1195" type="line"/>
		</contour>
	</outline>
</glyph>
<glyph name="breve" format="2">
	<advance width="1003"/>
	<unicode hex="02D8"/>
	<outline>
		<contour>
			<point x="909" y="1320" type="curve"/>
			<point x="909" y="1320" type="line"/>
			<point x="666" y="1381" type="line"/>
			<point x="659" y="1304"/>
			<point x="606" y="1202"/>
			<point x="490" y="1202" type="curve"/>
			<point x="373" y="1202"/>
			<point x="322" y="1304"/>
			<point x="315" y="1381" type="curve"/>
			<point x="70" y="1320" type="line"/>
			<point x="94" y="1112"/>
			<point x="261" y="990"/>
			<point x="490" y="990" type="curve"/>
			<point x="725" y="990"/>
			<point x="886" y="1118"/>
		</contour>
	</outline>
</glyph>
<glyph name="ring" format="2">
	<advance width="779"/>
	<unicode hex="02DA"/>
	<outline>
		<contour>
			<point x="85" y="1173" type="curve"/>
			<point x="85" y="1173" type="line"/>
			<point x="85" y="1021"/>
			<point x="203" y="914"/>
			<point x="378" y="914" type="curve"/>
			<point x="547" y="914"/>
			<point x="669" y="1021"/>
			<point x="669" y="1173" type="curve"/>
			<point x="669" y="1323"/>
			<point x="542" y="1430"/>
			<point x="378" y="1430" type="curve"/>
			<point x="214" y="1430"/>
			<point x="85" y="1323"/>
		</contour>
		<contour>
			<point x="298" y="1173" type="curve"/>
			<point x="298" y="1173" type="line"/>
			<point x="298" y="1222"/>
			<point x="333" y="1254"/>
			<point x="378" y="1254" type="curve"/>
			<point x="419" y="1254"/>
			<point x="456" y="1222"/>
			<point x="456" y="1173" type="curve"/>
			<point x="456" y="1122"/>
			<point x="421" y="1088"/>
			<point x="378" y="1088" type="curve"/>
			<point x="331" y="1088"/>
			<point x="298" y="1120"/>
		</contour>
	</outline>
</glyph>
<glyph name="ogonek" format="2">
	<advance width="685"/>
	<unicode hex="02DB"/>
	<outline>
		<contour>
			<point x="322" y="-440" type="curve"/>
			<point x="322" y="-440" type="line"/>
			<point x="429" y="-440"/>
			<point x="510" y="-374"/>
			<point x="541" y="-325" type="curve"/>
			<point x="406" y="-224" type="line"/>
			<point x="397" y="-238"/>
			<point x="374" y="-259"/>
			<point x="346" y="-259" type="curve"/>
			<point x="336" y="-259"/>
			<point x="312" y="-238"/>
			<point x="312" y="-218" type="curve"/>
			<point x="312" y="-136"/>
			<point x="354" y="-45"/>
			<point x="386" y="0" type="curve"/>
			<point x="280" y="42" type="line"/>
			<point x="211" y="-34"/>
			<point x="120" y="-166"/>
			<point x="120" y="-253" type="curve"/>
			<point x="120" y="-392"/>
			<point x="238" y="-440"/>
		</contour>
	</outline>
</glyph>
<glyph name="hookabovecomb" format="2">
	<advance width="0"/>
	<unicode hex="0309"/>
	<anchor x="-539" y="1402" name="top"/>
	<anchor x="-539" y="821" name="_top"/>
	<outline>
		<contour>
			<point x="-578" y="859" type="curve"/>
			<point x="-664" y="995" type="line"/>
			<point x="-624" y="1006"/>
			<point x="-528" y="1056"/>
			<point x="-528" y="1114" type="curve"/>
			<point x="-528" y="1171"/>
			<point x="-563" y="1179"/>
			<point x="-624" y="1179" type="curve"/>
			<point x="-682" y="1179"/>
			<point x="-738" y="1155"/>
			<point x="-778" y="1134" type="curve"/>
			<point x="-778" y="1322" type="line"/>
			<point x="-754" y="1338"/>
			<point x="-701" y="1370"/>
			<point x="-578" y="1370" type="curve"/>
			<point x="-440" y="1370"/>
			<point x="-301" y="1310"/>
			<point x="-301" y="1144" type="curve"/>
			<point x="-301" y="968"/>
			<point x="-501" y="882"/>
		</contour>
	</outline>
</glyph>
<glyph name="uni031B" format="2">
	<advance width="0"/>
	<unicode hex="031B"/>
	<anchor x="-726" y="1064" name="_topright"/>
	<anchor x="-334" y="1285" name="topright"/>
	<outline>
		<contour>
			<point x="-619" y="856" type="curve"/>
			<point x="-619" y="856" type="line"/>
			<point x="-453" y="856"/>
			<point x="-298" y="962"/>
			<point x="-298" y="1131" type="curve"/>
			<point x="-298" y="1216"/>
			<point x="-323" y="1267"/>
			<point x="-334" y="1285" type="curve"/>
			<point x="-574" y="1285" type="line"/>
			<point x="-558" y="1248"/>
			<point x="-550" y="1214"/>
			<point x="-550" y="1157" type="curve"/>
			<point x="-550" y="1096"/>
			<point x="-587" y="1037"/>
			<point x="-645" y="1037" type="curve"/>
			<point x="-685" y="1037"/>
			<point x="-706" y="1046"/>
			<point x="-726" y="1064" type="curve"/>
			<point x="-726" y="883" type="line"/>
			<point x="-696" y="866"/>
			<point x="-667" y="856"/>
		</contour>
	</outline>
</glyph>
<glyph name="emdash" format="2">
	<advance width="1768"/>
	<unicode hex="2014"/>
	<outline>
		<contour>
			<point x="-42" y="621" type="line"/>
			<point x="-42" y="288" type="line"/>
			<point x="1787" y="288" type="line"/>
			<point x="1787" y="621" type="line"/>
		</contour>
	</outline>
</glyph>
<glyph name="bullet" format="2">
	<advance width="1186"/>
	<unicode hex="2022"/>
	<outline>
		<contour>
			<point x="579" y="946" type="curve"/>
			<point x="579" y="946" type="line"/>
			<point x="373" y="946"/>
			<point x="206" y="776"/>
			<point x="206" y="570" type="curve"/>
			<point x="206" y="365"/>
			<point x="373" y="197"/>
			<point x="579" y="197" type="curve"/>
			<point x="786" y="197"/>
			<point x="955" y="363"/>
			<point x="955" y="570" type="curve"/>
			<point x="955" y="778"/>
			<point x="786" y="946"/>
		</contour>
	</outline>
</glyph>
<glyph name="perthousand" format="2">
	<advance width="2464"/>
	<unicode hex="2030"/>
	<outline>
		<contour>
			<point x="1736" y="1098" type="line"/>
			<point x="1621" y="1258" type="line"/>
			<point x="-6" y="259" type="line"/>
			<point x="109" y="99" type="line"/>
		</contour>
		<contour>
			<point x="32" y="1029" type="curve"/>
			<point x="32" y="1029" type="line"/>
			<point x="32" y="843"/>
			<point x="187" y="680"/>
			<point x="424" y="680" type="curve"/>
			<point x="661" y="680"/>
			<point x="816" y="843"/>
			<point x="816" y="1029" type="curve"/>
			<point x="816" y="1218"/>
			<point x="661" y="1378"/>
			<point x="424" y="1378" type="curve"/>
			<point x="187" y="1378"/>
			<point x="32" y="1218"/>
		</contour>
		<contour>
			<point x="294" y="1029" type="curve"/>
			<point x="294" y="1029" type="line"/>
			<point x="294" y="1107"/>
			<point x="347" y="1168"/>
			<point x="424" y="1168" type="curve"/>
			<point x="501" y="1168"/>
			<point x="550" y="1107"/>
			<point x="550" y="1029" type="curve"/>
			<point x="550" y="950"/>
			<point x="501" y="893"/>
			<point x="424" y="893" type="curve"/>
			<point x="347" y="893"/>
			<point x="294" y="950"/>
		</contour>
		<contour>
			<point x="816" y="291" type="curve"/>
			<point x="816" y="291" type="line"/>
			<point x="816" y="106"/>
			<point x="971" y="-58"/>
			<point x="1208" y="-58" type="curve"/>
			<point x="1445" y="-58"/>
			<point x="1600" y="106"/>
			<point x="1600" y="291" type="curve"/>
			<point x="1600" y="480"/>
			<point x="1445" y="640"/>
			<point x="1208" y="640" type="curve"/>
			<point x="971" y="640"/>
			<point x="816" y="480"/>
		</contour>
		<contour>
			<point x="1078" y="291" type="curve"/>
			<point x="1078" y="291" type="line"/>
			<point x="1078" y="370"/>
			<point x="1131" y="430"/>
			<point x="1208" y="430" type="curve"/>
			<point x="1285" y="430"/>
			<point x="1334" y="370"/>
			<point x="1334" y="291" type="curve"/>
			<point x="1334" y="213"/>
			<point x="1285" y="155"/>
			<point x="1208" y="155" type="curve"/>
			<point x="1131" y="155"/>
			<point x="1078" y="213"/>
		</contour>
		<contour>
			<point x="1648" y="291" type="curve"/>
			<point x="1648" y="291" type="line"/>
			<point x="1648" y="106"/>
			<point x="1803" y="-58"/>
			<point x="2040" y="-58" type="curve"/>
			<point x="2277" y="-58"/>
			<point x="2432" y="106"/>
			<point x="2432" y="291" type="curve"/>
			<point x="2432" y="480"/>
			<point x="2277" y="640"/>
			<point x="2040" y="640" type="curve"/>
			<point x="1803" y="640"/>
			<point x="1648" y="480"/>
		</contour>
		<contour>
			<point x="1910" y="291" type="curve"/>
			<point x="1910" y="291" type="line"/>
			<point x="1910" y="370"/>
			<point x="1963" y="430"/>
			<point x="2040" y="430" type="curve"/>
			<point x="2117" y="430"/>
			<point x="2166" y="370"/>
			<point x="2166" y="291" type="curve"/>
			<point x="2166" y="213"/>
			<point x="2117" y="155"/>
			<point x="2040" y="155" type="curve"/>
			<point x="1963" y="155"/>
			<point x="1910" y="213"/>
		</contour>
	</outline>
</glyph>
<glyph name="guilsinglleft" format="2">
	<advance width="640"/>
	<unicode hex="2039"/>
	<outline>
		<contour>
			<point x="360" y="29" type="line"/>
			<point x="547" y="176" type="line"/>
			<point x="341" y="445" type="line"/>
			<point x="547" y="714" type="line"/>
			<point x="360" y="862" type="line"/>
			<point x="35" y="445" type="line"/>
		</contour>
	</outline>
</glyph>
<glyph name="franc" format="2">
	<advance width="995"/>
	<unicode hex="20A3"/>
	<outline>
		<contour>
			<point x="707" y="395" type="line"/>
			<point x="-19" y="395" type="line"/>
			<point x="-19" y="165" type="line"/>
			<point x="707" y="165" type="line"/>
		</contour>
		<component base="F"/>
	</outline>
</glyph>
<glyph name="lira" format="2">
	<advance width="1238"/>
	<unicode hex="20A4"/>
	<outline>
		<contour>
			<point x="238" y="650" type="curve"/>
			<point x="238" y="650" type="line"/>
			<point x="298" y="550"/>
			<point x="344" y="443"/>
			<point x="344" y="389" type="curve"/>
			<point x="344" y="350"/>
			<point x="338" y="333"/>
			<point x="320" y="306" type="curve"/>
			<point x="168" y="306"/>
			<point x="46" y="184"/>
			<point x="46" y="0" type="curve"/>
			<point x="315" y="0" type="line"/>
			<point x="326" y="16"/>
			<point x="352" y="38"/>
			<point x="384" y="38" type="curve"/>
			<point x="536" y="38"/>
			<point x="624" y="-24"/>
			<point x="824" y="-24" type="curve"/>
			<point x="1026" y="-24"/>
			<point x="1138" y="118"/>
			<point x="1165" y="227" type="curve"/>
			<point x="856" y="338" type="line"/>
			<point x="854" y="333"/>
			<point x="830" y="264"/>
			<point x="771" y="264" type="curve"/>
			<point x="701" y="264"/>
			<point x="653" y="286"/>
			<point x="635" y="286" type="curve"/>
			<point x="642" y="296"/>
			<point x="662" y="352"/>
			<point x="662" y="402" type="curve"/>
			<point x="662" y="470"/>
			<point x="650" y="547"/>
			<point x="605" y="650" type="curve"/>
			<point x="582" y="701"/>
			<point x="536" y="822"/>
			<point x="536" y="909" type="curve"/>
			<point x="536" y="986"/>
			<point x="566" y="1042"/>
			<point x="638" y="1042" type="curve"/>
			<point x="725" y="1042"/>
			<point x="758" y="941"/>
			<point x="758" y="864" type="curve"/>
			<point x="1075" y="1021" type="line"/>
			<point x="1054" y="1160"/>
			<point x="917" y="1346"/>
			<point x="622" y="1346" type="curve"/>
			<point x="326" y="1346"/>
			<point x="158" y="1165"/>
			<point x="158" y="925" type="curve"/>
			<point x="158" y="803"/>
			<point x="200" y="714"/>
		</contour>
		<contour>
			<point x="840" y="774" type="line"/>
			<point x="72" y="774" type="line"/>
			<point x="72" y="627" type="line"/>
			<point x="840" y="627" type="line"/>
		</contour>
		<contour>
			<point x="840" y="566" type="line"/>
			<point x="72" y="566" type="line"/>
			<point x="72" y="419" type="line"/>
			<point x="840" y="419" type="line"/>
		</contour>
	</outline>
</glyph>
<glyph name="Euro" format="2">
	<advance width="1315"/>
	<unicode hex="20AC"/>
	<outline>
		<contour>
			<point x="1003" y="893" type="line"/>
			<point x="8" y="893" type="line"/>
			<point x="8" y="691" type="line"/>
			<point x="1003" y="691" type="line"/>
		</contour>
		<contour>
			<point x="1003" y="626" type="line"/>
			<point x="8" y="626" type="line"/>
			<point x="8" y="424" type="line"/>
			<point x="1003" y="424" type="line"/>
		</contour>
		<component base="C.ss01" xOffset="58"/>
	</outline>
</glyph>
<glyph name="uni20B9" format="2">
	<advance width="1234"/>
	<unicode hex="20B9"/>
	<outline>
		<contour>
			<point x="557" y="1320" type="curve"/>
			<point x="154" y="1320" type="line"/>
			<point x="154" y="1067" type="line"/>
			<point x="403" y="1067" type="line" smooth="yes"/>
			<point x="538" y="1067"/>
			<point x="621" y="995"/>
			<point x="621" y="843" type="curve"/>
			<point x="621" y="691"/>
			<point x="534" y="619"/>
			<point x="400" y="619" type="curve"/>
			<point x="152" y="619" type="line"/>
			<point x="152" y="405" type="line"/>
			<point x="326" y="405" type="line"/>
			<point x="693" y="405"/>
			<point x="965" y="512"/>
			<point x="965" y="856" type="curve"/>
			<point x="965" y="1112"/>
			<point x="797" y="1320"/>
		</contour>
		<contour>
			<point x="154" y="1320" type="line"/>
			<point x="154" y="1093" type="line"/>
			<point x="1107" y="1093" type="line"/>
			<point x="1107" y="1320" type="line"/>
		</contour>
		<contour>
			<point x="154" y="957" type="line"/>
			<point x="154" y="728" type="line"/>
			<point x="1107" y="728" type="line"/>
			<point x="1107" y="957" type="line"/>
		</contour>
		<contour>
			<point x="448" y="546" type="line"/>
			<point x="152" y="405" type="line"/>
			<point x="555" y="0" type="line"/>
			<point x="992" y="0" type="line"/>
		</contour>
	</outline>
</glyph>
<glyph name="uni20BA" format="2">
	<advance width="1024"/>
	<unicode hex="20BA"/>
	<outline>
		<contour>
			<point x="466" y="1320" type="line"/>
			<point x="78" y="1320" type="line"/>
			<point x="78" y="0" type="line"/>
			<point x="470" y="0" type="line"/>
			<point x="832" y="0"/>
			<point x="1053" y="155"/>
			<point x="1053" y="594" type="curve"/>
			<point x="731" y="594" type="line"/>
			<point x="731" y="390"/>
			<point x="616" y="336"/>
			<point x="466" y="336" type="curve"/>
		</contour>
		<contour>
			<point x="-29" y="968" type="line"/>
			<point x="-29" y="733" type="line"/>
			<point x="781" y="997" type="line"/>
			<point x="781" y="1232" type="line"/>
		</contour>
		<contour>
			<point x="-29" y="629" type="line"/>
			<point x="-29" y="394" type="line"/>
			<point x="781" y="658" type="line"/>
			<point x="781" y="893" type="line"/>
		</contour>
	</outline>
</glyph>
<glyph name="uni20BC" format="2">
	<advance width="1274"/>
	<unicode hex="20BC"/>
	<outline>
		<contour>
			<point x="56" y="778" type="curve"/>
			<point x="56" y="0" type="line"/>
			<point x="443" y="0" type="line"/>
			<point x="443" y="739" type="line" smooth="yes"/>
			<point x="443" y="842"/>
			<point x="501" y="907"/>
			<point x="626" y="907" type="curve"/>
			<point x="749" y="907"/>
			<point x="806" y="842"/>
			<point x="806" y="739" type="curve"/>
			<point x="806" y="0" type="line"/>
			<point x="1194" y="0" type="line"/>
			<point x="1194" y="778" type="line" smooth="yes"/>
			<point x="1194" y="1058"/>
			<point x="1010" y="1227"/>
			<point x="626" y="1227" type="curve"/>
			<point x="240" y="1227"/>
			<point x="56" y="1058"/>
		</contour>
		<contour>
			<point x="512" y="1376" type="line"/>
			<point x="512" y="0" type="line"/>
			<point x="744" y="0" type="line"/>
			<point x="744" y="1376" type="line"/>
		</contour>
	</outline>
</glyph>
<glyph name="uni2116" format="2">
	<advance width="2562"/>
	<unicode hex="2116"/>
	<outline>
		<contour>
			<point x="2477" y="294" type="line"/>
			<point x="1565" y="294" type="line"/>
			<point x="1565" y="0" type="line"/>
			<point x="2477" y="0" type="line"/>
		</contour>
		<component base="N"/>
		<component base="o" xOffset="1509" yOffset="486"/>
	</outline>
</glyph>
<glyph name="trademark" format="2">
	<advance width="862"/>
	<unicode hex="2122"/>
	<outline>
		<contour>
			<point x="304" y="1320" type="line"/>
			<point x="11" y="1320" type="line"/>
			<point x="11" y="1222" type="line"/>
			<point x="99" y="1222" type="line"/>
			<point x="99" y="907" type="line"/>
			<point x="216" y="907" type="line"/>
			<point x="216" y="1222" type="line"/>
			<point x="304" y="1222" type="line"/>
		</contour>
		<contour>
			<point x="710" y="907" type="line"/>
			<point x="826" y="907" type="line"/>
			<point x="787" y="1320" type="line"/>
			<point x="672" y="1320" type="line"/>
			<point x="570" y="1112" type="line"/>
			<point x="466" y="1320" type="line"/>
			<point x="350" y="1320" type="line"/>
			<point x="314" y="907" type="line"/>
			<point x="427" y="907" type="line"/>
			<point x="446" y="1117" type="line"/>
			<point x="448" y="1117" type="line"/>
			<point x="544" y="910" type="line"/>
			<point x="595" y="910" type="line"/>
			<point x="693" y="1117" type="line"/>
			<point x="694" y="1117" type="line"/>
		</contour>
	</outline>
</glyph>
<glyph name="notequal" format="2">
	<advance width="1053"/>
	<unicode hex="2260"/>
	<outline>
		<contour>
			<point x="35" y="91" type="line"/>
			<point x="267" y="91" type="line"/>
			<point x="918" y="1230" type="line"/>
			<point x="686" y="1230" type="line"/>
		</contour>
		<component base="equal" xOffset="16"/>
	</outline>
</glyph>
<glyph name="C.ss01" format="2">
	<advance width="1306"/>
	<outline>
		<contour>
			<point x="803" y="360" type="curve"/>
			<point x="803" y="360" type="line"/>
			<point x="550" y="360"/>
			<point x="470" y="523"/>
			<point x="470" y="661" type="curve"/>
			<point x="470" y="797"/>
			<point x="550" y="960"/>
			<point x="803" y="960" type="curve"/>
			<point x="896" y="960"/>
			<point x="992" y="923"/>
			<point x="1040" y="894" type="curve"/>
			<point x="1205" y="1222" type="line"/>
			<point x="1141" y="1275"/>
			<point x="979" y="1344"/>
			<point x="771" y="1344" type="curve"/>
			<point x="381" y="1344"/>
			<point x="50" y="1053"/>
			<point x="50" y="658" type="curve"/>
			<point x="50" y="264"/>
			<point x="382" y="-24"/>
			<point x="771" y="-24" type="curve"/>
			<point x="979" y="-24"/>
			<point x="1141" y="45"/>
			<point x="1205" y="98" type="curve"/>
			<point x="1040" y="426" type="line"/>
			<point x="992" y="397"/>
			<point x="896" y="360"/>
		</contour>
	</outline>
</glyph>
<glyph name="Q.ss02" format="2">
	<advance width="1490"/>
	<anchor x="707" y="1320" name="top"/>
	<anchor x="707" y="0" name="bottom"/>
	<outline>
		<contour>
			<point x="704" y="-24" type="curve"/>
			<point x="704" y="-24" type="line"/>
			<point x="821" y="-24"/>
			<point x="939" y="2"/>
			<point x="1040" y="56" type="curve"/>
			<point x="1088" y="18"/>
			<point x="1170" y="-34"/>
			<point x="1285" y="-82" type="curve"/>
			<point x="1454" y="264" type="line"/>
			<point x="1328" y="301"/>
			<point x="1317" y="309"/>
			<point x="1291" y="317" type="curve"/>
			<point x="1346" y="416"/>
			<point x="1379" y="533"/>
			<point x="1379" y="661" type="curve"/>
			<point x="1379" y="1046"/>
			<point x="1070" y="1344"/>
			<point x="704" y="1344" type="curve"/>
			<point x="342" y="1344"/>
			<point x="29" y="1046"/>
			<point x="29" y="661" type="curve"/>
			<point x="29" y="275"/>
			<point x="315" y="-24"/>
		</contour>
		<contour>
			<point x="704" y="373" type="curve"/>
			<point x="704" y="373" type="line"/>
			<point x="494" y="373"/>
			<point x="448" y="515"/>
			<point x="448" y="661" type="curve"/>
			<point x="448" y="806"/>
			<point x="509" y="949"/>
			<point x="704" y="949" type="curve"/>
			<point x="902" y="949"/>
			<point x="960" y="806"/>
			<point x="960" y="661" type="curve"/>
			<point x="960" y="608"/>
			<point x="955" y="555"/>
			<point x="938" y="507" type="curve"/>
			<point x="784" y="614"/>
			<point x="696" y="728"/>
			<point x="730" y="694" type="curve"/>
			<point x="570" y="494" type="line"/>
			<point x="579" y="475"/>
			<point x="626" y="405"/>
			<point x="693" y="328" type="curve"/>
			<point x="686" y="355"/>
			<point x="693" y="373"/>
		</contour>
	</outline>
</glyph>
